<?xml version="1.0" encoding="utf-8"?>
<!-- Generator: Adobe Illustrator 15.0.0, SVG Export Plug-In . SVG Version: 6.00 Build 0)  -->
<!DOCTYPE svg PUBLIC "-//W3C//DTD SVG 1.1//EN" "http://www.w3.org/Graphics/SVG/1.1/DTD/svg11.dtd">
<svg version="1.1" id="Layer_1" xmlns="http://www.w3.org/2000/svg" xmlns:xlink="http://www.w3.org/1999/xlink" x="0px" y="0px"
	 width="26px" height="26px" viewBox="-5 0 26 26" enable-background="new -5 0 26 26" xml:space="preserve">
<path fill="#FFD41F" d="M12.602,9.784c-0.854-1.134-1.967-2.097-3.336-2.89L8.664,6.88c-0.217,0-0.479,0.031-0.788,0.093l1.899,0.85
	c-0.319,0.701-0.741,1.24-1.268,1.621L9.466,9.9c-0.401,0.72-0.839,1.229-1.313,1.527l0.603,0.258
	c-0.35,0.787-0.849,1.338-1.498,1.654l0.525,0.249c-0.608,1.345-1.571,2.017-2.889,2.017c-0.248,0-0.521-0.037-0.818-0.107
	c-0.299-0.073-0.629-0.186-0.989-0.34l-1.251-0.016l0.727-0.775l0.726,0.031c0.392,0.166,0.731,0.291,1.019,0.373
	c0.289,0.082,0.525,0.125,0.711,0.125c0.711,0,1.276-0.321,1.698-0.965l-2.805-1.259H2.967c-0.619,0-1.142,0.206-1.57,0.62
	c-0.428,0.413-0.642,0.92-0.642,1.52c0,0.662,0.413,1.154,1.239,1.479c0.826,0.326,2.061,0.487,3.701,0.487h0.56l-0.016,0.434
	c0,1.215-0.402,2.492-1.205,3.83l-0.201,0.34c-0.351,0.588-0.524,1.133-0.524,1.637c0,0.967,0.515,1.627,1.543,1.978l0.619-2.858
	l3.105-3.306c0.523-0.658,0.921-1.168,1.189-1.528c0.657-0.926,1.152-1.467,1.481-1.621c0.33-0.154,1.144-0.232,2.44-0.232
	c0.35-0.979,0.524-1.973,0.524-2.98c0-0.854-0.159-1.75-0.478-2.687H12.602z"/>
<path fill="#FFD41F" d="M6.131,6.988H5.618c-1.007,0-1.509,0.345-1.509,1.035v0.093h1.436l2.209,0.987
	c0.298-0.226,0.545-0.479,0.741-0.756c0.041-0.052,0.097-0.125,0.17-0.217L6.131,6.988z"/>
<path fill="#FFD41F" d="M5.391,8.904H4.232c-1.205,0-1.809,0.303-1.809,0.912l0.047,0.199h2.502l2.362,1.045
	c0.34-0.166,0.634-0.395,0.88-0.686c0.031-0.042,0.073-0.093,0.124-0.156L5.391,8.904z"/>
<path fill="#FFD41F" d="M4.833,10.771H3.197c-0.629,0-1.1,0.08-1.414,0.237c-0.315,0.158-0.471,0.396-0.471,0.712
	c0,0.163,0.066,0.336,0.199,0.52c0.4-0.217,0.983-0.324,1.75-0.324h0.814l2.316,1.021c0.506-0.133,0.938-0.438,1.297-0.914
	L4.833,10.771z"/>
<g>
	<g>
		<path fill="#747474" d="M16,12.641c0,1.246-0.277,2.461-0.833,3.646h-1.808c-0.422,0-0.729,0.068-0.92,0.208
			c-0.189,0.139-0.518,0.522-0.979,1.151l-0.433,0.57c-0.485,0.648-0.824,1.086-1.021,1.313L7.15,22.57L6.378,26L5.93,25.893
			c-1.617-0.382-2.425-1.338-2.425-2.873c0-0.556,0.269-1.344,0.804-2.362l0.248-0.433c0.441-0.865,0.726-1.761,0.851-2.688H5.02
			c-1.514,0-2.729-0.258-3.645-0.773C0.458,16.245,0,15.564,0,14.717c0-0.734,0.273-1.4,0.82-1.999
			c-0.217-0.358-0.325-0.694-0.325-1.013c0-0.389,0.104-0.71,0.315-0.965c0.211-0.256,0.521-0.44,0.935-0.553
			c-0.021-0.187-0.031-0.33-0.031-0.435c0-0.969,0.556-1.5,1.668-1.594c-0.021-0.124-0.03-0.218-0.03-0.277
			c0-1.082,0.756-1.622,2.271-1.622h0.664l0.556,0.28C7.51,6.355,8.108,6.264,8.633,6.264c0.186,0,0.473,0.014,0.865,0.045
			c1.236,0.566,2.384,1.457,3.443,2.672h2.302C15.748,10.206,16,11.425,16,12.641z M12.602,9.784
			c-0.854-1.134-1.967-2.097-3.336-2.89L8.664,6.879c-0.217,0-0.479,0.031-0.788,0.094l1.899,0.85
			c-0.319,0.701-0.741,1.24-1.268,1.621L9.466,9.9c-0.401,0.72-0.839,1.229-1.313,1.526l0.603,0.259
			c-0.35,0.787-0.849,1.338-1.498,1.653l0.525,0.249c-0.608,1.346-1.571,2.018-2.889,2.018c-0.248,0-0.521-0.037-0.818-0.108
			c-0.299-0.073-0.629-0.187-0.989-0.34l-1.251-0.017l0.727-0.774l0.727,0.03c0.393,0.166,0.73,0.291,1.02,0.373
			s0.524,0.125,0.711,0.125c0.711,0,1.275-0.32,1.697-0.965l-2.805-1.259H2.968c-0.618,0-1.142,0.206-1.569,0.62
			c-0.428,0.413-0.643,0.92-0.643,1.52c0,0.662,0.413,1.154,1.239,1.479c0.825,0.328,2.06,0.489,3.7,0.489h0.56l-0.016,0.434
			c0,1.215-0.402,2.492-1.205,3.83l-0.201,0.34c-0.351,0.588-0.524,1.133-0.524,1.637c0,0.967,0.516,1.627,1.543,1.978l0.619-2.858
			l3.105-3.306c0.523-0.658,0.921-1.168,1.189-1.528c0.657-0.926,1.152-1.467,1.481-1.621c0.33-0.154,1.144-0.232,2.44-0.232
			c0.35-0.979,0.524-1.973,0.524-2.98c0-0.854-0.159-1.75-0.478-2.687H12.602z M6.131,6.988H5.618c-1.007,0-1.509,0.345-1.509,1.035
			v0.093h1.436l2.209,0.987c0.298-0.227,0.545-0.479,0.741-0.756c0.041-0.053,0.097-0.125,0.17-0.218L6.131,6.988z M5.391,8.904
			H4.232c-1.205,0-1.809,0.303-1.809,0.912l0.047,0.199h2.502l2.362,1.045c0.34-0.166,0.634-0.396,0.88-0.687
			c0.031-0.042,0.073-0.093,0.124-0.156L5.391,8.904z M4.833,10.771H3.197c-0.629,0-1.1,0.08-1.414,0.236
			c-0.315,0.158-0.471,0.396-0.471,0.713c0,0.162,0.065,0.336,0.198,0.52c0.4-0.217,0.983-0.324,1.75-0.324h0.814l2.315,1.021
			c0.508-0.133,0.94-0.438,1.299-0.914L4.833,10.771z"/>
	</g>
</g>
</svg>
