<?xml version="1.0" encoding="utf-8"?>
<!-- Generator: Adobe Illustrator 15.0.0, SVG Export Plug-In . SVG Version: 6.00 Build 0)  -->
<!DOCTYPE svg PUBLIC "-//W3C//DTD SVG 1.1//EN" "http://www.w3.org/Graphics/SVG/1.1/DTD/svg11.dtd">
<svg version="1.1" id="Layer_1" xmlns="http://www.w3.org/2000/svg" xmlns:xlink="http://www.w3.org/1999/xlink" x="0px" y="0px"
	 width="26px" height="26px" viewBox="-5 0 26 26" enable-background="new -5 0 26 26" xml:space="preserve">
<g>
	<g>
		<path fill="#747474" d="M0,13.359c0-1.246,0.277-2.461,0.833-3.646h1.808c0.422,0,0.728-0.069,0.919-0.208
			c0.19-0.139,0.518-0.522,0.98-1.151l0.433-0.571c0.485-0.648,0.824-1.086,1.02-1.313L8.85,3.429L9.622,0l0.448,0.108
			c1.617,0.381,2.425,1.338,2.425,2.872c0,0.556-0.269,1.344-0.804,2.363l-0.248,0.432c-0.441,0.865-0.725,1.761-0.85,2.688h0.387
			c1.514,0,2.729,0.258,3.645,0.774C15.542,9.755,16,10.436,16,11.283c0,0.734-0.273,1.4-0.82,1.999
			c0.217,0.358,0.325,0.694,0.325,1.013c0,0.389-0.104,0.71-0.315,0.965c-0.211,0.256-0.522,0.44-0.935,0.553
			c0.021,0.186,0.031,0.33,0.031,0.434c0,0.969-0.556,1.5-1.668,1.594c0.021,0.124,0.03,0.217,0.03,0.277
			c0,1.082-0.756,1.622-2.27,1.622H9.714L9.158,19.46c-0.668,0.185-1.266,0.276-1.791,0.276c-0.186,0-0.473-0.014-0.865-0.045
			c-1.236-0.566-2.384-1.457-3.444-2.672H0.757C0.252,15.794,0,14.575,0,13.359z M3.398,16.216c0.854,1.134,1.967,2.097,3.336,2.89
			l0.602,0.015c0.217,0,0.479-0.031,0.788-0.093l-1.899-0.85c0.319-0.701,0.741-1.24,1.267-1.621L6.534,16.1
			c0.402-0.72,0.839-1.229,1.313-1.527l-0.603-0.258c0.35-0.787,0.849-1.338,1.498-1.654l-0.525-0.249
			c0.608-1.345,1.571-2.017,2.889-2.017c0.248,0,0.521,0.037,0.818,0.108c0.299,0.073,0.629,0.186,0.989,0.34l1.251,0.016
			l-0.727,0.775l-0.726-0.031c-0.392-0.166-0.731-0.291-1.019-0.373c-0.289-0.082-0.525-0.125-0.711-0.125
			c-0.711,0-1.276,0.321-1.698,0.965l2.805,1.259h0.944c0.619,0,1.142-0.206,1.57-0.62c0.428-0.413,0.642-0.92,0.642-1.52
			c0-0.662-0.413-1.154-1.239-1.479C13.18,9.382,11.945,9.22,10.305,9.22h-0.56l0.016-0.433c0-1.215,0.402-2.492,1.205-3.83
			l0.201-0.34c0.351-0.587,0.524-1.132,0.524-1.637c0-0.967-0.515-1.626-1.543-1.977L9.529,3.861L6.424,7.167
			C5.9,7.825,5.503,8.335,5.235,8.695c-0.658,0.926-1.153,1.467-1.482,1.622c-0.33,0.154-1.143,0.232-2.44,0.232
			c-0.35,0.979-0.525,1.973-0.525,2.98c0,0.854,0.159,1.75,0.478,2.687H3.398z M9.869,19.012h0.513c1.007,0,1.509-0.345,1.509-1.035
			v-0.093h-1.436l-2.209-0.987c-0.298,0.226-0.545,0.479-0.741,0.756c-0.041,0.052-0.097,0.125-0.17,0.217L9.869,19.012z
			 M10.609,17.096h1.158c1.205,0,1.809-0.303,1.809-0.912l-0.047-0.199h-2.502l-2.362-1.045c-0.34,0.166-0.634,0.395-0.88,0.686
			c-0.031,0.042-0.073,0.093-0.124,0.156L10.609,17.096z M11.167,15.229h1.636c0.629,0,1.1-0.08,1.414-0.237
			c0.315-0.158,0.471-0.396,0.471-0.712c0-0.163-0.066-0.336-0.199-0.52c-0.4,0.217-0.983,0.324-1.75,0.324h-0.814l-2.316-1.021
			C9.102,13.195,8.669,13.5,8.31,13.977L11.167,15.229z"/>
	</g>
</g>
</svg>
