<?xml version="1.0" encoding="utf-8"?>
<!-- Generator: Adobe Illustrator 15.0.0, SVG Export Plug-In  -->
<!DOCTYPE svg PUBLIC "-//W3C//DTD SVG 1.1//EN" "http://www.w3.org/Graphics/SVG/1.1/DTD/svg11.dtd" [
	<!ENTITY ns_flows "http://ns.adobe.com/Flows/1.0/">
]>
<svg version="1.1"
	 xmlns="http://www.w3.org/2000/svg" xmlns:xlink="http://www.w3.org/1999/xlink" xmlns:a="http://ns.adobe.com/AdobeSVGViewerExtensions/3.0/"
	 x="0px" y="0px" width="50px" height="43px" viewBox="-4.803 2.118 50 43" enable-background="new -4.803 2.118 50 43"
	 xml:space="preserve">
<defs>
</defs>
<polygon fill="Highlight" points="24.761,20.235 34.574,26.317 38.551,17.512 31.019,12.935 "/>
<path fill="Highlight" stroke="ButtonText" stroke-width="2" stroke-miterlimit="10" d="M25.303,19.219
	c-1.228,3.164-3.116,7.211-5.699,10.499c-5.6,7.127-10.982,7.795-13.847,6.199c-4.577-2.549-6.913,2.649-2.086,5.504
	c8.227,4.867,17.581,3.19,24.738-5.388c3-3.595,5.981-9.075,7.466-12.602"/>
<path fill="Highlight" stroke="ButtonText" stroke-width="2" stroke-miterlimit="10" d="M22.908,20.235l2.396-1.017l6.181-3.712
	l-0.439,6.762l4.546-4.36l0.526,10.147c0,0,2.447-5.412,3.709-9.328c1.396-4.352-0.855-7.356-1.252-7.719
	c-0.396-0.36,3.105-6.465,3.105-6.465l-6.311,5.417c0,0-3.336-1.07-5.508,0.14c-2.224,1.239-3.776,3.138-3.774,3.136
	C26.086,13.239,23.968,15.92,22.908,20.235z"/>
</svg>
