<?xml version="1.0" encoding="utf-8"?>
<!DOCTYPE svg PUBLIC "-//W3C//DTD SVG 1.1//EN" "http://www.w3.org/Graphics/SVG/1.1/DTD/svg11.dtd">
<svg version="1.1" id="Layer_1" xmlns="http://www.w3.org/2000/svg" xmlns:xlink="http://www.w3.org/1999/xlink" x="0px" y="0px"
	 width="20px" height="30px" viewBox="0 0 20 30" enable-background="new 0 0 20 20" xml:space="preserve">
<g>
	<path fill="#00FFFF" d="M1.11,13.135c-0.173-0.182-0.305-0.337-0.396-0.468c-0.091-0.131-0.136-0.255-0.136-0.375
		c0-0.156,0.075-0.312,0.227-0.468c0.151-0.155,0.346-0.295,0.584-0.417c0.237-0.12,0.498-0.218,0.779-0.292
		c0.28-0.072,0.551-0.109,0.811-0.109c0.277,0,0.504,0.037,0.682,0.109c0.177,0.074,0.349,0.198,0.513,0.37
		c0.666,0.701,1.269,1.417,1.81,2.149c0.541,0.73,1.071,1.485,1.59,2.264c0.501-1.341,1.021-2.637,1.557-3.888
		c0.536-1.249,1.105-2.474,1.706-3.672s1.247-2.379,1.935-3.543c0.687-1.164,1.433-2.334,2.238-3.511
		c0.293-0.44,0.729-0.765,1.304-0.973C16.888,0.104,17.627,0,18.526,0c0.269,0,0.484,0.039,0.649,0.117
		c0.164,0.078,0.246,0.182,0.246,0.311c0,0.113-0.026,0.226-0.078,0.338c-0.053,0.112-0.129,0.242-0.232,0.389
		c-1.965,2.742-3.752,5.615-5.361,8.617c-1.609,3.003-3.006,6.169-4.191,9.499c-0.078,0.244-0.269,0.426-0.571,0.545
		C8.685,19.938,8.239,20,7.651,20c-0.277,0-0.511-0.01-0.701-0.027c-0.19-0.017-0.35-0.048-0.48-0.098
		c-0.13-0.046-0.238-0.104-0.325-0.175c-0.086-0.067-0.16-0.156-0.22-0.258c-0.373-0.605-0.734-1.171-1.084-1.694
		c-0.351-0.524-0.714-1.032-1.09-1.524c-0.376-0.494-0.778-0.991-1.207-1.493C2.115,14.229,1.637,13.697,1.11,13.135z"/>
</g>
</svg>
