<?xml version="1.0" encoding="utf-8"?>
<!DOCTYPE svg PUBLIC "-//W3C//DTD SVG 1.1//EN" "http://www.w3.org/Graphics/SVG/1.1/DTD/svg11.dtd">
<svg version="1.1" id="Layer_1" xmlns="http://www.w3.org/2000/svg" xmlns:xlink="http://www.w3.org/1999/xlink" x="0px" y="0px"
	 width="25px" height="25px" viewBox="0 0 25 25" enable-background="new 0 0 25 25" xml:space="preserve">
<g>
	<polygon fill="#FF6600" points="20.522,22.163 16.869,20.885 15.9,24.627 13.084,21.975 10.674,25 9.18,21.436 5.747,23.221 
		5.835,19.357 1.972,19.595 3.627,16.102 0,14.748 2.936,12.229 0.173,9.522 3.882,8.413 2.462,4.819 6.303,5.31 6.47,1.45 
		9.778,3.458 11.504,0 13.709,3.177 16.694,0.718 17.413,4.515 21.143,3.482 20.252,7.241 24.082,7.812 21.734,10.885 25,12.96 
		21.604,14.814 23.741,18.036 19.883,18.352 	"/>
	<circle fill="#FFFFFF" cx="12.5" cy="12.5" r="7.848"/>
</g>
</svg>
