<?xml version="1.0" encoding="utf-8"?>
<!-- Generator: Adobe Illustrator 15.0.0, SVG Export Plug-In  -->
<!DOCTYPE svg PUBLIC "-//W3C//DTD SVG 1.1//EN" "http://www.w3.org/Graphics/SVG/1.1/DTD/svg11.dtd" [
	<!ENTITY ns_flows "http://ns.adobe.com/Flows/1.0/">
]>
<svg version="1.1"
	 xmlns="http://www.w3.org/2000/svg" xmlns:xlink="http://www.w3.org/1999/xlink" xmlns:a="http://ns.adobe.com/AdobeSVGViewerExtensions/3.0/"
	 x="0px" y="0px" width="12px" height="10px" viewBox="-0.173 -0.236 12 10" enable-background="new -0.173 -0.236 12 10"
	 xml:space="preserve">
<defs>
</defs>
<path fill="#EC008C" d="M5.824,1.365c0.203-0.254,0.443-0.48,0.721-0.68c0.117-0.086,0.25-0.17,0.398-0.252s0.311-0.155,0.486-0.22
	s0.366-0.116,0.571-0.155S8.426,0,8.66,0c0.465,0,0.883,0.081,1.254,0.243s0.686,0.385,0.943,0.668s0.455,0.615,0.592,0.996
	s0.205,0.788,0.205,1.222c0,0.41-0.083,0.815-0.249,1.216s-0.385,0.79-0.656,1.169s-0.582,0.742-0.932,1.09S9.111,7.275,8.748,7.576
	S8.029,8.149,7.682,8.394S7.022,8.847,6.747,9.021S6.25,9.329,6.082,9.425S5.828,9.568,5.824,9.568s-0.061-0.03-0.17-0.091
	S5.396,9.329,5.209,9.214S4.804,8.959,4.556,8.795S4.044,8.447,3.765,8.244S3.198,7.818,2.903,7.576S2.321,7.078,2.042,6.809
	S1.5,6.257,1.254,5.962s-0.463-0.598-0.65-0.908S0.269,4.427,0.161,4.104S0,3.457,0,3.129c0-0.434,0.068-0.841,0.205-1.222
	s0.334-0.713,0.592-0.996S1.369,0.405,1.74,0.243S2.529,0,2.994,0c0.234,0,0.454,0.02,0.659,0.059s0.396,0.091,0.571,0.155
	s0.338,0.138,0.486,0.22S4.992,0.6,5.109,0.686C5.387,0.885,5.625,1.111,5.824,1.365z"/>
</svg>
