<?xml version="1.0" encoding="utf-8"?>
<!-- Generator: Adobe Illustrator 15.1.0, SVG Export Plug-In . SVG Version: 6.00 Build 0)  -->
<!DOCTYPE svg PUBLIC "-//W3C//DTD SVG 1.1//EN" "http://www.w3.org/Graphics/SVG/1.1/DTD/svg11.dtd">
<svg version="1.1" id="Layer_1" xmlns="http://www.w3.org/2000/svg" xmlns:xlink="http://www.w3.org/1999/xlink" x="0px" y="0px"
	 width="40px" height="40px" viewBox="0 0 40 40" enable-background="new 0 0 40 40" xml:space="preserve">
<g>
	<g id="Layer_2" opacity="0.13">
		<path fill="#212121" d="M19.976,2.981c-8.474,0-15.713,6.343-16.842,14.75C2.529,22.237,3.712,26.71,6.47,30.323
			c2.756,3.609,6.758,5.936,11.262,6.539c0.765,0.104,1.533,0.154,2.291,0.154c8.469,0,15.711-6.346,16.842-14.756
			c0.606-4.502-0.577-8.973-3.334-12.587c-2.76-3.614-6.762-5.938-11.269-6.545C21.507,3.033,20.736,2.981,19.976,2.981"/>
	</g>
	<g id="Layer_1_1_">
		<path d="M19.976,0.5c0.864,0,1.739,0.058,2.62,0.176c10.676,1.438,18.165,11.249,16.729,21.923
			C38.004,32.387,29.635,39.5,20.023,39.5c-0.861,0-1.738-0.062-2.621-0.178C6.73,37.89-0.761,28.078,0.676,17.403
			C1.99,7.61,10.36,0.5,19.976,0.5 M19.976,2.981c-8.474,0-15.713,6.343-16.842,14.75C2.529,22.237,3.712,26.71,6.47,30.323
			c2.756,3.609,6.758,5.936,11.262,6.539c0.765,0.104,1.533,0.154,2.291,0.154c8.469,0,15.711-6.346,16.842-14.756
			c0.606-4.502-0.577-8.973-3.334-12.587c-2.76-3.614-6.762-5.938-11.269-6.545C21.507,3.033,20.736,2.981,19.976,2.981"/>
		<g>
			<g>
				<g>
					<defs>
						<path id="SVGID_1_" d="M16.576,5.891C9.549,7.586,4.813,14.294,5.56,21.494c0.4,3.856,2.276,7.33,5.286,9.774
							c3.009,2.44,6.793,3.569,10.649,3.168c0.652-0.065,1.302-0.179,1.931-0.33c7.022-1.132,11.761-8.403,11.015-15.604
							c-0.396-3.856-2.273-7.327-5.281-9.772c-3.014-2.445-6.797-3.572-10.654-3.173C17.857,5.627,17.206,5.739,16.576,5.891"/>
					</defs>
					<clipPath id="SVGID_2_">
						<use xlink:href="#SVGID_1_"  overflow="visible"/>
					</clipPath>
					<g clip-path="url(#SVGID_2_)">
						<g>
							<path fill="none" stroke="#000000" d="M10.361,42.229"/>
							<path fill="none" stroke="#000000" d="M0.98,3.344"/>
							<path fill="none" stroke="#000000" d="M38.552,35.426"/>
							<path fill="none" stroke="#000000" d="M29.172-3.458"/>
						</g>
						<g>
							<path fill="none" stroke="#000000" d="M-2.843,10.952"/>
							<path fill="none" stroke="#000000" d="M36.043,1.571"/>
							<g id="XMLID_2_">
								<g>
									<polygon points="13.49,29.637 12.319,24.776 18.16,23.377 19.331,28.235 									"/>
									<polygon points="12.319,24.776 10.91,18.947 16.75,17.547 18.16,23.377 									"/>
									<polygon points="19.331,28.235 18.16,23.377 23.02,22.196 24.191,27.058 									"/>
									<polygon points="26.041,9.126 20.21,10.537 18.68,4.187 24.51,2.787 									"/>
								</g>
								<g>
									<polyline fill="none" stroke="#000000" points="6.811,1.937 7.98,6.777 9.509,13.117 10.91,18.947 12.319,24.776 
										13.49,29.637 16.191,40.815 									"/>
									<polyline fill="none" stroke="#000000" points="12.64,0.527 13.811,5.367 15.339,11.707 16.75,17.547 18.16,23.377 
										19.331,28.235 22.031,39.417 									"/>
									<polyline fill="none" stroke="#000000" points="17.509,-0.644 18.68,4.187 20.21,10.537 21.611,16.367 23.02,22.196 
										24.191,27.058 26.89,38.235 									"/>
									<polyline fill="none" stroke="#000000" points="23.34,-2.053 24.51,2.787 26.041,9.126 27.441,14.967 28.85,20.797 
										30.02,25.656 32.72,36.837 									"/>
									<polyline fill="none" stroke="#000000" points="37.22,6.427 26.041,9.126 20.21,10.537 15.339,11.707 9.509,13.117 
										-1.669,15.817 									"/>
									<polyline fill="none" stroke="#000000" points="32.77,0.787 24.51,2.787 18.68,4.187 13.811,5.367 7.98,6.777 
										-6.12,10.177 									"/>
									<polyline fill="none" stroke="#000000" points="38.621,12.267 27.441,14.967 21.611,16.367 16.75,17.547 10.91,18.947 
										-0.26,21.646 									"/>
									<polyline fill="none" stroke="#000000" points="40.031,18.097 28.85,20.797 23.02,22.196 18.16,23.377 12.319,24.776 
										1.14,27.478 									"/>
									<polyline fill="none" stroke="#000000" points="41.201,22.957 30.02,25.656 24.191,27.058 19.331,28.235 13.49,29.637 
										2.319,32.337 									"/>
								</g>
							</g>
							<path fill="none" stroke="#000000" d="M3.725,38.172"/>
							<path fill="none" stroke="#000000" d="M42.609,28.791"/>
						</g>
					</g>
				</g>
			</g>
		</g>
	</g>
</g>
</svg>
