<?xml version="1.0" encoding="utf-8"?>
<!-- Generator: Adobe Illustrator 15.1.0, SVG Export Plug-In . SVG Version: 6.00 Build 0)  -->
<!DOCTYPE svg PUBLIC "-//W3C//DTD SVG 1.1//EN" "http://www.w3.org/Graphics/SVG/1.1/DTD/svg11.dtd">
<svg version="1.1" id="Layer_1" xmlns="http://www.w3.org/2000/svg" xmlns:xlink="http://www.w3.org/1999/xlink" x="0px" y="0px"
	 width="40px" height="40px" viewBox="0 0 40 40" enable-background="new 0 0 40 40" xml:space="preserve">
<g>
	<g id="Layer_2_1_">
		<path opacity="0.13" fill="#212121" enable-background="new    " d="M19.977,2.762c-8.474,0-15.713,6.343-16.842,14.751
			C2.529,22.02,3.713,26.492,6.47,30.105c2.757,3.607,6.758,5.936,11.263,6.539c0.762,0.104,1.532,0.152,2.291,0.152
			c8.469,0,15.71-6.344,16.842-14.754c0.606-4.503-0.578-8.974-3.335-12.588c-2.76-3.614-6.762-5.938-11.268-6.545
			C21.508,2.814,20.736,2.762,19.977,2.762"/>
	</g>
	<g id="Layer_1_2_">
		<g id="Layer_1_1_">
			<rect display="none" width="40" height="40"/>
			<path d="M19.977,0.281c0.864,0,1.739,0.058,2.619,0.176c10.676,1.438,18.166,11.249,16.729,21.921
				c-1.32,9.789-9.13,16.902-19.301,16.902c-0.863,0-1.739-0.063-2.621-0.177C6.73,37.67-0.76,27.859,0.677,17.184
				C1.991,7.391,10.362,0.281,19.977,0.281 M19.977,2.762c-8.474,0-15.713,6.343-16.842,14.751
				C2.529,22.02,3.713,26.492,6.47,30.105c2.757,3.607,6.758,5.936,11.263,6.539c0.762,0.104,1.532,0.152,2.291,0.152
				c8.469,0,15.71-6.344,16.842-14.754c0.606-4.503-0.578-8.974-3.335-12.588c-2.76-3.614-6.762-5.938-11.268-6.545
				C21.508,2.814,20.736,2.762,19.977,2.762"/>
			<path display="none" fill="#FFFFFF" d="M11.436,20.615c-0.677,0-1.233,0.574-1.233,1.279s0.557,1.278,1.233,1.278
				c0.685,0,1.235-0.573,1.235-1.278S12.12,20.615,11.436,20.615z"/>
			<path display="none" fill="#FFFFFF" stroke="#FFFFFF" stroke-width="0.4798" d="M29.238,22.652H14.822
				c-0.419,0-0.759-0.34-0.759-0.756c0-0.418,0.34-0.763,0.759-0.763h14.417c0.421,0,0.761,0.345,0.761,0.763
				C29.997,22.313,29.657,22.652,29.238,22.652"/>
			<path display="none" fill="#FFFFFF" d="M11.436,15.714c-0.677,0-1.233,0.573-1.233,1.278s0.557,1.281,1.233,1.281
				c0.685,0,1.235-0.576,1.235-1.281S12.12,15.714,11.436,15.714z"/>
			<path display="none" fill="#FFFFFF" stroke="#FFFFFF" stroke-width="0.4798" d="M29.238,17.751H14.822
				c-0.419,0-0.759-0.34-0.759-0.757c0-0.418,0.34-0.759,0.759-0.759h14.417c0.421,0,0.761,0.341,0.761,0.759
				C29.997,17.411,29.657,17.751,29.238,17.751"/>
			<path display="none" fill="#FFFFFF" d="M11.436,10.812c-0.677,0-1.233,0.573-1.233,1.278s0.557,1.281,1.233,1.281
				c0.685,0,1.235-0.576,1.235-1.281S12.12,10.812,11.436,10.812z"/>
			<path display="none" fill="#FFFFFF" stroke="#FFFFFF" stroke-width="0.4798" d="M29.238,12.849H14.822
				c-0.419,0-0.759-0.34-0.759-0.757c0-0.418,0.34-0.759,0.759-0.759h14.417c0.421,0,0.761,0.341,0.761,0.759
				C29.997,12.509,29.657,12.849,29.238,12.849"/>
			<path display="none" fill="#FFFFFF" d="M11.436,25.518c-0.677,0-1.233,0.573-1.233,1.274c0,0.712,0.557,1.286,1.233,1.286
				c0.685,0,1.235-0.574,1.235-1.286C12.671,26.091,12.12,25.518,11.436,25.518z"/>
			<path display="none" fill="#FFFFFF" stroke="#FFFFFF" stroke-width="0.4798" d="M29.24,27.557H14.822
				c-0.419,0-0.759-0.341-0.759-0.759c0-0.42,0.34-0.759,0.759-0.759H29.24c0.417,0,0.757,0.339,0.757,0.759
				C29.997,27.216,29.657,27.557,29.24,27.557"/>
			<path display="none" fill="#FFFFFF" d="M19.998,28.279c4.688,0,8.5-3.813,8.5-8.495c0-4.688-3.813-8.501-8.5-8.501
				c-4.685,0-8.496,3.813-8.496,8.501C11.502,24.469,15.313,28.279,19.998,28.279 M19.998,13.162c3.65,0,6.621,2.971,6.621,6.623
				c0,3.648-2.971,6.617-6.621,6.617c-3.647,0-6.617-2.969-6.617-6.617C13.381,16.133,16.351,13.162,19.998,13.162 M23.131,20.723
				c0.521,0,0.938-0.422,0.938-0.938c0-0.519-0.421-0.938-0.938-0.938h-2.754v-3.438c0-0.52-0.422-0.941-0.939-0.941
				c-0.517,0-0.938,0.422-0.938,0.941v4.377c0,0.519,0.422,0.939,0.938,0.939h3.133V20.723z"/>
			<path display="none" fill="#FFFFFF" d="M14.956,15.428c-0.554,0.002-1.003,0.45-1.003,1.003c0.002,0.554,0.45,1.002,1.004,1.003
				c4.488,0,8.141,3.651,8.143,8.142c0.002,0.554,0.449,1.002,1,1.002c0.28,0.002,0.53-0.111,0.711-0.292
				c0.185-0.183,0.295-0.435,0.293-0.711C25.104,19.981,20.549,15.429,14.956,15.428"/>
			<path display="none" fill="#FFFFFF" d="M14.369,19.682c-0.555-0.001-1.003,0.45-1.002,1.001c0,0.553,0.451,1.004,1.003,1.004
				c1.194-0.002,2.319,0.465,3.165,1.311c0.846,0.847,1.311,1.97,1.312,3.167c0,0.553,0.449,1.001,1.001,1.001
				c0.277,0,0.529-0.109,0.71-0.291c0.184-0.186,0.293-0.436,0.291-0.711c0-1.729-0.675-3.357-1.896-4.583
				C17.728,20.355,16.098,19.683,14.369,19.682"/>
			<path display="none" fill="#FFFFFF" d="M15.541,11.299c-0.551-0.003-1,0.446-1.001,1.001c0.003,0.554,0.451,1.002,1.004,1.002
				c3.121,0,6.056,1.212,8.263,3.419c2.209,2.208,3.424,5.145,3.424,8.267c-0.002,0.551,0.447,1.001,1.002,1.002
				c0.274-0.001,0.524-0.108,0.709-0.295c0.184-0.18,0.291-0.432,0.291-0.705c-0.002-3.659-1.422-7.096-4.01-9.685
				C22.639,12.723,19.197,11.297,15.541,11.299"/>
			<path display="none" fill="#FFFFFF" d="M16.762,26.74c-0.235,0.238-0.626,0.238-0.862,0l-2.85-2.85
				c-0.238-0.236-0.238-0.625,0-0.863l9.11-9.106c0.236-0.238,0.625-0.238,0.863,0l2.845,2.848c0.239,0.239,0.239,0.628,0,0.864
				L16.762,26.74z M28.104,11.687c-1.625-1.626-3.229-0.373-3.229-0.373c-0.268,0.205-0.674,0.566-0.908,0.797
				c-0.234,0.234-0.229,0.62,0.008,0.858l2.851,2.848c0.235,0.239,0.62,0.243,0.854,0.008c0.234-0.235,0.594-0.643,0.801-0.908
				C28.48,14.917,29.732,13.316,28.104,11.687 M13.393,28.254c0.327-0.08,0.399-0.342,0.161-0.578l-1.463-1.459
				c-0.237-0.234-0.499-0.162-0.579,0.162l-0.474,1.907c-0.081,0.327,0.119,0.526,0.446,0.446L13.393,28.254z"/>
			<path display="none" fill="#FFFFFF" d="M30.273,14.719c0-1.06-0.858-1.917-1.92-1.917h-3.945c-1.061,0-1.749,0.796-1.917,1.917
				c-0.171,1.12-0.903,6.236-0.903,6.236c0,0.381,0.309,0.688,0.688,0.688c0.383,0,0.613-0.236,0.688-0.688
				c0.076-0.447,0.902-5.8,0.902-5.8H24.2c0,0,0,12.278,0,13.889c0,0.532,0.432,0.964,0.964,0.964c0.531,0,0.963-0.432,0.963-0.964
				v-8.091h0.421v8.091c0,0.532,0.433,0.964,0.964,0.964c0.53,0,0.963-0.432,0.963-0.964c0-1.61,0-13.889,0-13.889h0.424v5.202
				c0,0.381,0.31,0.688,0.688,0.688s0.688-0.307,0.688-0.688C30.273,20.357,30.273,15.945,30.273,14.719z"/>
			<circle display="none" fill="#FFFFFF" cx="26.547" cy="10.475" r="1.655"/>
			<circle display="none" fill="#FFFFFF" cx="14.807" cy="11.248" r="1.655"/>
			<path display="none" fill="#FFFFFF" d="M14.807,23.262v5.826c0,0.508,0.411,0.92,0.919,0.92c0.508,0,0.921-0.412,0.921-0.92
				c0-0.557,0-3.64,0-5.826l2.073-0.021l-2.073-7.411h0.404l1.57,5.324c0.099,0.336,0.451,0.527,0.787,0.429
				c0.335-0.099,0.527-0.451,0.429-0.788l0,0c0,0-1.159-4.236-1.474-5.381c-0.314-1.147-0.819-1.831-1.831-1.831h-3.854
				c-1.011,0-1.517,0.684-1.83,1.831c-0.466,1.702-0.257,0.939-1.474,5.381l0,0c-0.099,0.337,0.093,0.689,0.429,0.788
				c0.336,0.101,0.688-0.093,0.787-0.429l1.569-5.324h0.406l-2.081,7.432h2.081c0,2.188,0,5.271,0,5.826
				c0,0.508,0.411,0.92,0.919,0.92c0.508,0,0.92-0.412,0.92-0.92v-5.826H14.807"/>
		</g>
		<g id="Layer_2">
			<g>
				<path d="M11.209,13.204v13.599c0,0.064,0.012,0.125,0.018,0.189V13.018C11.221,13.079,11.209,13.141,11.209,13.204"/>
				<path d="M27.793,11.218h-0.787H12.98h-0.756c-0.55,0-0.997,0.447-0.997,0.997v0.802v13.975v0.793
					c0,0.551,0.446,0.996,0.997,0.996h0.67h3.214V23.76c0-0.285,0.229-0.514,0.509-0.514h6.75c0.281,0,0.512,0.229,0.512,0.514
					v5.021h3.213h0.701c0.551,0,0.998-0.445,0.998-0.996v-15.57C28.791,11.665,28.344,11.218,27.793,11.218 M25.447,17.176
					c0,0.28-0.229,0.511-0.51,0.511h-9.891c-0.281,0-0.511-0.23-0.511-0.511v-4.08c0-0.284,0.23-0.514,0.511-0.514h9.891
					c0.279,0,0.51,0.23,0.51,0.514V17.176z"/>
				<path d="M19.872,26.453h-1.746c-0.282,0-0.513,0.23-0.513,0.512v1.781c0,0.01,0.006,0.018,0.006,0.029h2.758
					c0.001-0.012,0.008-0.021,0.008-0.029v-1.781C20.385,26.684,20.155,26.453,19.872,26.453"/>
			</g>
		</g>
	</g>
</g>
</svg>
