<?xml version="1.0" encoding="utf-8"?>
<!-- Generator: Adobe Illustrator 15.1.0, SVG Export Plug-In . SVG Version: 6.00 Build 0)  -->
<!DOCTYPE svg PUBLIC "-//W3C//DTD SVG 1.1//EN" "http://www.w3.org/Graphics/SVG/1.1/DTD/svg11.dtd">
<svg version="1.1" id="Layer_1" xmlns="http://www.w3.org/2000/svg" xmlns:xlink="http://www.w3.org/1999/xlink" x="0px" y="0px"
	 width="40px" height="40px" viewBox="0 0 40 40" enable-background="new 0 0 40 40" xml:space="preserve">
<g>
	<g id="Layer_2">
		<path opacity="0.13" fill="#212121" enable-background="new    " d="M19.977,2.981c-8.475,0-15.713,6.343-16.843,14.751
			c-0.605,4.507,0.578,8.979,3.336,12.593c2.757,3.609,6.758,5.936,11.263,6.539c0.762,0.104,1.532,0.154,2.291,0.154
			c8.469,0,15.71-6.347,16.842-14.754c0.606-4.507-0.578-8.978-3.335-12.591c-2.76-3.614-6.762-5.938-11.268-6.545
			C21.506,3.033,20.735,2.981,19.977,2.981"/>
	</g>
	<g id="Layer_1_1_">
		<path d="M19.977,0.501c0.862,0,1.737,0.058,2.618,0.176c10.676,1.438,18.166,11.249,16.729,21.92
			c-1.32,9.789-9.13,16.902-19.301,16.902c-0.863,0-1.739-0.061-2.621-0.176C6.729,37.89-0.76,28.079,0.675,17.403
			C1.991,7.61,10.361,0.501,19.977,0.501 M19.977,2.981c-8.475,0-15.713,6.343-16.843,14.751c-0.605,4.507,0.578,8.979,3.336,12.593
			c2.757,3.609,6.758,5.936,11.263,6.539c0.762,0.104,1.532,0.154,2.291,0.154c8.469,0,15.71-6.347,16.842-14.754
			c0.606-4.507-0.578-8.978-3.335-12.591c-2.76-3.614-6.762-5.938-11.268-6.545C21.506,3.033,20.735,2.981,19.977,2.981"/>
		<path d="M28.11,11.429h-16.22c-0.521,0-0.948,0.426-0.948,0.947v16.497c0,0.519,0.427,0.946,0.948,0.946h16.22
			c0.521,0,0.947-0.426,0.947-0.946V12.376C29.058,11.856,28.631,11.429,28.11,11.429z M27.718,28.647H12.28V15.776h15.438V28.647z"
			/>
		<rect x="16.148" y="16.796" width="2.128" height="2.279"/>
		<rect x="18.973" y="16.796" width="2.13" height="2.279"/>
		<rect x="13.321" y="19.751" width="2.129" height="2.277"/>
		<rect x="16.181" y="19.751" width="2.128" height="2.277"/>
		<rect x="18.967" y="19.751" width="2.125" height="2.277"/>
		<rect x="21.8" y="19.751" width="2.131" height="2.277"/>
		<rect x="13.321" y="22.706" width="2.129" height="2.275"/>
		<rect x="16.148" y="22.706" width="2.128" height="2.275"/>
		<rect x="13.321" y="22.706" width="2.129" height="2.275"/>
		<rect x="16.181" y="22.706" width="2.128" height="2.275"/>
		<rect x="13.321" y="25.662" width="2.129" height="2.278"/>
		<rect x="16.148" y="25.662" width="2.128" height="2.278"/>
		<rect x="18.967" y="25.662" width="2.125" height="2.278"/>
		<rect x="21.8" y="25.662" width="2.129" height="2.278"/>
		<rect x="18.973" y="22.706" width="2.13" height="2.275"/>
		<rect x="21.8" y="16.796" width="2.129" height="2.279"/>
		<rect x="21.8" y="22.706" width="2.129" height="2.275"/>
		<rect x="24.632" y="19.751" width="2.131" height="2.277"/>
		<rect x="24.632" y="16.796" width="2.131" height="2.279"/>
		<rect x="24.632" y="22.706" width="2.131" height="2.275"/>
	</g>
</g>
</svg>
