<?xml version="1.0" encoding="utf-8"?>
<!-- Generator: Adobe Illustrator 15.1.0, SVG Export Plug-In . SVG Version: 6.00 Build 0)  -->
<!DOCTYPE svg PUBLIC "-//W3C//DTD SVG 1.1//EN" "http://www.w3.org/Graphics/SVG/1.1/DTD/svg11.dtd">
<svg version="1.1" xmlns="http://www.w3.org/2000/svg" xmlns:xlink="http://www.w3.org/1999/xlink" x="0px" y="0px" width="40px"
	 height="40px" viewBox="0 0 40 40" enable-background="new 0 0 40 40" xml:space="preserve">
<g id="Layer_2">
	<path opacity="0.13" fill="#212121" d="M19.976,2.98c-8.474,0-15.713,6.343-16.843,14.75c-0.606,4.51,0.578,8.982,3.336,12.596
		c2.757,3.609,6.758,5.936,11.263,6.539c0.763,0.104,1.532,0.154,2.291,0.154c8.47,0,15.709-6.347,16.843-14.754
		c0.604-4.508-0.578-8.979-3.337-12.592c-2.76-3.615-6.762-5.938-11.268-6.545C21.506,3.032,20.734,2.98,19.976,2.98"/>
</g>
<g id="Layer_1">
	<g>
		<path d="M19.976,0.5c0.864,0,1.739,0.057,2.62,0.176c10.676,1.438,18.166,11.249,16.729,21.922
			C38.004,32.386,29.633,39.5,20.022,39.5c-0.862,0-1.739-0.061-2.621-0.176C6.728,37.891-0.762,28.08,0.676,17.403
			C1.99,7.609,10.36,0.5,19.976,0.5 M19.976,2.98c-8.474,0-15.713,6.343-16.843,14.75c-0.606,4.51,0.578,8.982,3.336,12.596
			c2.757,3.609,6.758,5.936,11.263,6.539c0.763,0.104,1.532,0.154,2.291,0.154c8.47,0,15.709-6.347,16.843-14.754
			c0.604-4.508-0.578-8.979-3.337-12.592c-2.76-3.615-6.762-5.938-11.268-6.545C21.506,3.032,20.734,2.98,19.976,2.98"/>
		<rect x="11" y="11" stroke="#000000" width="19" height="13"/>
		<rect x="18" y="24" fill="#FFFFFF" stroke="#000000" width="5" height="2"/>
		<line fill="none" stroke="#000000" stroke-width="2" stroke-linecap="round" x1="19.315" y1="28.091" x2="13.52" y2="30.802"/>
		<line fill="none" stroke="#000000" stroke-width="2" stroke-linecap="round" x1="21.521" y1="28.091" x2="27.314" y2="30.802"/>
		<path fill="#FFFFFF" d="M26.314,14.5h-12c-0.276,0-0.5-0.225-0.5-0.5c0-0.277,0.224-0.5,0.5-0.5h12c0.274,0,0.5,0.223,0.5,0.5
			C26.814,14.275,26.592,14.5,26.314,14.5z"/>
		<path fill="#FFFFFF" d="M26.314,17.5h-12c-0.276,0-0.5-0.225-0.5-0.5c0-0.277,0.224-0.5,0.5-0.5h12c0.274,0,0.5,0.223,0.5,0.5
			C26.814,17.275,26.592,17.5,26.314,17.5z"/>
		<path fill="#FFFFFF" d="M26.314,20.5h-12c-0.276,0-0.5-0.225-0.5-0.5c0-0.277,0.224-0.5,0.5-0.5h12c0.274,0,0.5,0.223,0.5,0.5
			C26.814,20.275,26.592,20.5,26.314,20.5z"/>
	</g>
</g>
</svg>
