<?xml version="1.0" encoding="utf-8"?>
<!-- Generator: Adobe Illustrator 15.1.0, SVG Export Plug-In . SVG Version: 6.00 Build 0)  -->
<!DOCTYPE svg PUBLIC "-//W3C//DTD SVG 1.1//EN" "http://www.w3.org/Graphics/SVG/1.1/DTD/svg11.dtd">
<svg version="1.1" id="Layer_1" xmlns="http://www.w3.org/2000/svg" xmlns:xlink="http://www.w3.org/1999/xlink" x="0px" y="0px"
	 width="40px" height="40px" viewBox="0 0 40 40" enable-background="new 0 0 40 40" xml:space="preserve">
<g>
	<g id="Layer_2_1_">
		<path fill="#231F20" d="M19.976,2.981c-8.474,0-15.713,6.343-16.842,14.75C2.529,22.236,3.712,26.71,6.47,30.323
			c2.756,3.608,6.758,5.936,11.262,6.538c0.764,0.104,1.533,0.154,2.291,0.154c8.469,0,15.71-6.346,16.842-14.756
			c0.606-4.502-0.578-8.973-3.334-12.587c-2.761-3.613-6.763-5.937-11.269-6.544C21.506,3.033,20.735,2.981,19.976,2.981"/>
	</g>
	<g id="Layer_1_2_">
		<g id="Layer_1_1_">
			<path fill="#FFFFFF" d="M19.976,0.5c0.863,0,1.738,0.058,2.619,0.176C33.271,2.114,40.761,11.925,39.324,22.6
				c-1.321,9.787-9.69,16.9-19.302,16.9c-0.861,0-1.738-0.063-2.621-0.178C6.73,37.891-0.761,28.078,0.676,17.403
				C1.99,7.61,10.36,0.5,19.976,0.5 M19.976,2.981c-8.474,0-15.713,6.343-16.842,14.75C2.529,22.236,3.712,26.71,6.47,30.323
				c2.756,3.608,6.758,5.936,11.262,6.538c0.764,0.104,1.533,0.154,2.291,0.154c8.469,0,15.71-6.346,16.842-14.756
				c0.606-4.502-0.578-8.973-3.334-12.587c-2.761-3.613-6.763-5.937-11.269-6.544C21.506,3.033,20.735,2.981,19.976,2.981"/>
		</g>
		<g id="Layer_2">
			<g>
				<g>
					<g>
						<defs>
							<path id="SVGID_1_" d="M16.575,5.891C9.549,7.586,4.813,14.294,5.559,21.494c0.4,3.855,2.276,7.33,5.286,9.773
								c3.009,2.44,6.793,3.569,10.648,3.168c0.652-0.064,1.302-0.179,1.931-0.33c7.022-1.691,11.761-8.402,11.015-15.604
								c-0.396-3.856-2.272-7.327-5.279-9.772c-3.016-2.445-6.799-3.572-10.654-3.173C17.856,5.627,17.205,5.739,16.575,5.891"/>
						</defs>
						<clipPath id="SVGID_2_">
							<use xlink:href="#SVGID_1_"  overflow="visible"/>
						</clipPath>
						<g clip-path="url(#SVGID_2_)">
							<path fill="none" stroke="#000000" d="M10.361,42.229"/>
							<path fill="none" stroke="#000000" d="M0.98,3.344"/>
							<path fill="none" stroke="#000000" d="M38.551,35.426"/>
							<path fill="none" stroke="#000000" d="M29.171-3.458"/>
							<path fill="none" stroke="#000000" d="M-2.843,10.952"/>
							<path fill="none" stroke="#000000" d="M36.042,1.571"/>
							<g id="XMLID_2_">
								<g>
									<polygon fill="#FFFFFF" points="13.49,29.637 12.319,24.775 18.159,23.377 19.33,28.234 									"/>
									<polygon fill="#FFFFFF" points="12.319,24.775 10.91,18.947 16.75,17.547 18.159,23.377 									"/>
									<polygon fill="#FFFFFF" points="19.33,28.234 18.159,23.377 23.019,22.195 24.19,27.059 									"/>
									<polygon fill="#FFFFFF" points="26.04,9.126 20.21,10.537 18.68,4.187 24.509,2.787 									"/>
								</g>
								<g>
									<polyline fill="none" stroke="#FFFFFF" points="6.81,1.937 7.98,6.777 9.509,13.117 10.91,18.947 12.319,24.775 
										13.49,29.637 16.19,40.814 									"/>
									<polyline fill="none" stroke="#FFFFFF" points="12.64,0.527 13.81,5.367 15.339,11.707 16.75,17.547 18.159,23.377 
										19.33,28.234 22.03,39.417 									"/>
									<polyline fill="none" stroke="#FFFFFF" points="17.509,-0.644 18.68,4.187 20.21,10.537 21.61,16.367 23.019,22.195 
										24.19,27.059 26.89,38.234 									"/>
									<polyline fill="none" stroke="#FFFFFF" points="23.339,-2.053 24.509,2.787 26.04,9.126 27.44,14.967 28.849,20.797 
										30.019,25.656 32.72,36.837 									"/>
									<polyline fill="none" stroke="#FFFFFF" points="37.22,6.427 26.04,9.126 20.21,10.537 15.339,11.707 9.509,13.117 
										-1.67,15.817 									"/>
									<polyline fill="none" stroke="#FFFFFF" points="32.769,0.787 24.509,2.787 18.68,4.187 13.81,5.367 7.98,6.777 
										-6.12,10.177 									"/>
									<polyline fill="none" stroke="#FFFFFF" points="38.62,12.267 27.44,14.967 21.61,16.367 16.75,17.547 10.91,18.947 
										-0.26,21.646 									"/>
									<polyline fill="none" stroke="#FFFFFF" points="40.03,18.097 28.849,20.797 23.019,22.195 18.159,23.377 12.319,24.775 
										1.14,27.479 									"/>
									<polyline fill="none" stroke="#FFFFFF" points="41.2,22.957 30.019,25.656 24.19,27.059 19.33,28.234 13.49,29.637 
										2.319,32.337 									"/>
								</g>
							</g>
							<path fill="none" stroke="#000000" d="M3.724,38.172"/>
							<path fill="none" stroke="#000000" d="M42.608,28.791"/>
						</g>
					</g>
				</g>
			</g>
		</g>
	</g>
</g>
</svg>
