<?xml version="1.0" encoding="utf-8"?>
<!-- Generator: Adobe Illustrator 15.1.0, SVG Export Plug-In . SVG Version: 6.00 Build 0)  -->
<!DOCTYPE svg PUBLIC "-//W3C//DTD SVG 1.1//EN" "http://www.w3.org/Graphics/SVG/1.1/DTD/svg11.dtd">
<svg version="1.1" id="Layer_1" xmlns="http://www.w3.org/2000/svg" xmlns:xlink="http://www.w3.org/1999/xlink" x="0px" y="0px"
	 width="40px" height="40px" viewBox="0 0 40 40" enable-background="new 0 0 40 40" xml:space="preserve">
<g>
	<g id="Layer_2">
		<path fill="#231F20" d="M19.977,2.98c-8.475,0-15.713,6.343-16.842,14.751C2.528,22.238,3.712,26.71,6.47,30.324
			c2.757,3.609,6.758,5.936,11.263,6.539c0.762,0.104,1.532,0.154,2.291,0.154c8.469,0,15.71-6.347,16.842-14.754
			c0.606-4.507-0.578-8.978-3.334-12.591c-2.761-3.612-6.763-5.936-11.269-6.543C21.507,3.032,20.736,2.98,19.977,2.98"/>
	</g>
	<g id="Layer_1_1_">
		<path fill="#FFFFFF" d="M19.976,0.5c0.862,0,1.737,0.058,2.619,0.176c10.676,1.438,18.166,11.249,16.729,21.922
			C38.002,32.387,29.633,39.5,20.022,39.5c-0.862,0-1.738-0.061-2.621-0.178C6.729,37.889-0.76,28.078,0.675,17.403
			C1.991,7.61,10.36,0.5,19.976,0.5 M19.976,2.981c-8.474,0-15.713,6.343-16.842,14.751c-0.605,4.506,0.578,8.979,3.336,12.592
			c2.756,3.609,6.758,5.936,11.262,6.539c0.763,0.104,1.533,0.154,2.291,0.154c8.468,0,15.709-6.347,16.84-14.754
			c0.607-4.506-0.577-8.977-3.334-12.591c-2.76-3.614-6.762-5.938-11.268-6.545C21.506,3.033,20.734,2.981,19.976,2.981"/>
		<polygon fill="#FFFFFF" points="20.542,11.426 28.197,18.5 30.513,18.5 20.511,9.258 9.487,18.5 12.105,18.5 		"/>
		<polygon fill="#FFFFFF" points="20.628,13.938 13.5,19.914 13.5,28.5 27.499,28.5 27.499,20.286 		"/>
	</g>
</g>
</svg>
