<?xml version="1.0" encoding="utf-8"?>
<!-- Generator: Adobe Illustrator 15.1.0, SVG Export Plug-In . SVG Version: 6.00 Build 0)  -->
<!DOCTYPE svg PUBLIC "-//W3C//DTD SVG 1.1//EN" "http://www.w3.org/Graphics/SVG/1.1/DTD/svg11.dtd">
<svg version="1.1" id="Layer_1" xmlns="http://www.w3.org/2000/svg" xmlns:xlink="http://www.w3.org/1999/xlink" x="0px" y="0px"
	 width="40px" height="40px" viewBox="0 0 40 40" enable-background="new 0 0 40 40" xml:space="preserve">
<g>
	<g id="Layer_2">
		<path fill="#231F20" d="M19.977,2.981c-8.475,0-15.713,6.343-16.842,14.751c-0.606,4.507,0.578,8.979,3.335,12.593
			c2.757,3.609,6.758,5.936,11.263,6.539c0.762,0.104,1.532,0.154,2.291,0.154c8.469,0,15.71-6.347,16.842-14.754
			c0.606-4.507-0.578-8.978-3.334-12.591c-2.761-3.612-6.763-5.936-11.269-6.543C21.507,3.033,20.736,2.981,19.977,2.981"/>
	</g>
	<g id="Layer_1_1_">
		<path fill="#FFFFFF" d="M19.977,0.501c0.862,0,1.737,0.058,2.618,0.176c10.676,1.438,18.166,11.249,16.729,21.92
			c-1.32,9.789-9.688,16.902-19.301,16.902c-0.863,0-1.738-0.061-2.621-0.176C6.729,37.89-0.759,28.079,0.675,17.403
			C1.991,7.61,10.361,0.501,19.977,0.501 M19.977,2.981c-8.475,0-15.713,6.343-16.842,14.751c-0.606,4.507,0.578,8.979,3.335,12.593
			c2.757,3.609,6.758,5.936,11.263,6.539c0.762,0.104,1.532,0.154,2.291,0.154c8.469,0,15.71-6.347,16.842-14.754
			c0.606-4.507-0.578-8.978-3.334-12.591c-2.761-3.612-6.763-5.936-11.269-6.543C21.507,3.033,20.736,2.981,19.977,2.981"/>
		<path fill="#FFFFFF" d="M19.977,0.501c0.862,0,1.737,0.058,2.618,0.176c10.676,1.438,18.166,11.249,16.729,21.92
			c-1.32,9.789-9.688,16.902-19.301,16.902c-0.863,0-1.738-0.061-2.621-0.176C6.729,37.89-0.759,28.079,0.675,17.403
			C1.991,7.61,10.361,0.501,19.977,0.501 M19.977,2.981c-8.475,0-15.713,6.343-16.842,14.751c-0.606,4.507,0.578,8.979,3.335,12.593
			c2.757,3.609,6.758,5.936,11.263,6.539c0.762,0.104,1.532,0.154,2.291,0.154c8.469,0,15.71-6.347,16.842-14.754
			c0.606-4.507-0.578-8.978-3.334-12.591c-2.761-3.612-6.763-5.936-11.269-6.543C21.507,3.033,20.736,2.981,19.977,2.981"/>
		<path fill="#FFFFFF" d="M13.016,14.483c-0.724,0.004-1.309,0.588-1.309,1.311c0.003,0.723,0.587,1.309,1.311,1.31
			c5.859,0,10.63,4.767,10.632,10.631c0.002,0.724,0.586,1.309,1.307,1.309c0.363,0.003,0.689-0.146,0.928-0.381
			c0.237-0.239,0.385-0.567,0.383-0.93C26.267,20.429,20.319,14.485,13.016,14.483"/>
		<path fill="#FFFFFF" d="M12.25,20.039c-0.726-0.001-1.311,0.587-1.309,1.308c0,0.723,0.588,1.313,1.309,1.313
			c1.56-0.002,3.028,0.604,4.134,1.711c1.104,1.104,1.712,2.569,1.713,4.136c0,0.725,0.585,1.311,1.307,1.311
			c0.362,0,0.691-0.146,0.929-0.381c0.239-0.242,0.382-0.568,0.379-0.931c0-2.258-0.879-4.385-2.477-5.981
			C16.636,20.917,14.506,20.04,12.25,20.039"/>
		<path fill="#FFFFFF" d="M13.78,9.093c-0.719-0.004-1.306,0.583-1.309,1.307c0.006,0.724,0.59,1.309,1.312,1.309
			c4.075,0,7.907,1.583,10.79,4.465c2.884,2.883,4.471,6.718,4.471,10.795c-0.003,0.72,0.584,1.308,1.309,1.308
			c0.356,0,0.686-0.142,0.926-0.385c0.236-0.232,0.383-0.563,0.383-0.921c-0.003-4.776-1.855-9.266-5.236-12.646
			C23.047,10.952,18.553,9.09,13.78,9.093"/>
	</g>
</g>
</svg>
