<?xml version="1.0" encoding="utf-8"?>
<!-- Generator: Adobe Illustrator 15.1.0, SVG Export Plug-In . SVG Version: 6.00 Build 0)  -->
<!DOCTYPE svg PUBLIC "-//W3C//DTD SVG 1.1//EN" "http://www.w3.org/Graphics/SVG/1.1/DTD/svg11.dtd">
<svg version="1.1" id="Layer_1" xmlns="http://www.w3.org/2000/svg" xmlns:xlink="http://www.w3.org/1999/xlink" x="0px" y="0px"
	 width="40px" height="40px" viewBox="0 0 40 40" enable-background="new 0 0 40 40" xml:space="preserve">
<g>
	<g id="Layer_2">
		<path fill="#231F20" d="M19.976,2.981c-8.474,0-15.713,6.343-16.843,14.751c-0.605,4.507,0.578,8.979,3.336,12.593
			c2.757,3.609,6.758,5.936,11.263,6.539c0.763,0.104,1.532,0.154,2.291,0.154c8.469,0,15.708-6.347,16.842-14.754
			c0.604-4.507-0.578-8.978-3.337-12.591c-2.76-3.614-6.762-5.938-11.268-6.545C21.505,3.033,20.734,2.981,19.976,2.981"/>
	</g>
	<g id="Layer_1_1_">
		<path fill="#FFFFFF" d="M19.976,0.501c0.864,0,1.739,0.058,2.619,0.176c10.676,1.438,18.166,11.249,16.729,21.92
			c-1.32,9.789-9.691,16.902-19.301,16.902c-0.862,0-1.739-0.061-2.621-0.176C6.728,37.89-0.762,28.079,0.676,17.403
			C1.99,7.61,10.36,0.501,19.976,0.501 M19.976,2.981c-8.474,0-15.713,6.343-16.843,14.751c-0.605,4.507,0.578,8.979,3.336,12.593
			c2.757,3.609,6.758,5.936,11.263,6.539c0.763,0.104,1.532,0.154,2.291,0.154c8.469,0,15.708-6.347,16.842-14.754
			c0.604-4.507-0.578-8.978-3.337-12.591c-2.76-3.614-6.762-5.938-11.268-6.545C21.505,3.033,20.734,2.981,19.976,2.981"/>
		<circle fill="#FFFFFF" cx="20.147" cy="12.52" r="2.013"/>
		<path fill="#FFFFFF" d="M22.249,27.301c0,0.773-0.627,1.199-1.401,1.199h-1.402c-0.774,0-1.401-0.426-1.401-1.199l-2.104-11.307
			c0-0.773,0.628-1.494,1.402-1.494h5.607c0.773,0,1.402,0.721,1.402,1.494L22.249,27.301z"/>
		<circle fill="#FFFFFF" cx="28.41" cy="15.824" r="1.607"/>
		<path fill="#FFFFFF" d="M30.089,27.584c0,0.617-0.502,0.916-1.119,0.916h-1.119c-0.617,0-1.119-0.299-1.119-0.916l-1.68-8.958
			c0-0.618,0.502-1.126,1.119-1.126h4.477c0.619,0,1.119,0.508,1.119,1.126L30.089,27.584z"/>
		<circle fill="#FFFFFF" cx="11.589" cy="15.824" r="1.608"/>
		<path fill="#FFFFFF" d="M13.268,27.584c0,0.617-0.501,0.916-1.119,0.916h-1.12c-0.617,0-1.119-0.299-1.119-0.916l-1.679-8.958
			c0-0.618,0.501-1.126,1.119-1.126h4.476c0.619,0,1.12,0.508,1.12,1.126L13.268,27.584z"/>
	</g>
</g>
</svg>
