<?xml version="1.0" encoding="utf-8"?>
<!-- Generator: Adobe Illustrator 15.1.0, SVG Export Plug-In . SVG Version: 6.00 Build 0)  -->
<!DOCTYPE svg PUBLIC "-//W3C//DTD SVG 1.1//EN" "http://www.w3.org/Graphics/SVG/1.1/DTD/svg11.dtd">
<svg version="1.1" id="Layer_1" xmlns="http://www.w3.org/2000/svg" xmlns:xlink="http://www.w3.org/1999/xlink" x="0px" y="0px"
	 width="40px" height="40px" viewBox="0 0 40 40" enable-background="new 0 0 40 40" xml:space="preserve">
<g>
	<g id="Layer_2">
		<path fill="#231F20" d="M19.977,2.982c-8.475,0-15.713,6.343-16.842,14.751C2.528,22.24,3.712,26.712,6.47,30.326
			c2.757,3.608,6.758,5.936,11.263,6.539c0.762,0.104,1.532,0.153,2.291,0.153c8.469,0,15.71-6.346,16.842-14.754
			c0.606-4.506-0.578-8.977-3.334-12.59c-2.761-3.613-6.763-5.937-11.269-6.544C21.507,3.034,20.736,2.982,19.977,2.982"/>
	</g>
	<g id="Layer_1_1_">
		<path fill="#FFFFFF" d="M19.977,0.501c0.862,0,1.737,0.058,2.618,0.176c10.676,1.438,18.166,11.249,16.729,21.92
			c-1.32,9.789-9.688,16.902-19.301,16.902c-0.863,0-1.738-0.061-2.621-0.176C6.729,37.89-0.759,28.08,0.675,17.404
			C1.991,7.611,10.361,0.501,19.977,0.501 M19.977,2.982c-8.475,0-15.713,6.343-16.842,14.751C2.528,22.24,3.712,26.712,6.47,30.326
			c2.757,3.608,6.758,5.936,11.263,6.539c0.762,0.104,1.532,0.153,2.291,0.153c8.469,0,15.71-6.346,16.842-14.754
			c0.606-4.506-0.578-8.977-3.334-12.59c-2.761-3.613-6.763-5.937-11.269-6.544C21.507,3.034,20.736,2.982,19.977,2.982"/>
		<path fill="#FFFFFF" d="M16.762,26.96c-0.235,0.238-0.626,0.238-0.862,0l-2.851-2.85c-0.237-0.236-0.237-0.625,0-0.863
			l9.111-9.107c0.236-0.237,0.625-0.237,0.863,0l2.844,2.849c0.24,0.239,0.24,0.628,0,0.864L16.762,26.96z M28.103,11.907
			c-1.625-1.626-3.229-0.373-3.229-0.373c-0.268,0.205-0.674,0.566-0.908,0.797c-0.234,0.233-0.229,0.62,0.008,0.858l2.851,2.848
			c0.235,0.239,0.62,0.243,0.854,0.008c0.234-0.234,0.594-0.643,0.801-0.908C28.479,15.136,29.731,13.536,28.103,11.907
			 M13.393,28.474c0.327-0.08,0.398-0.342,0.161-0.578l-1.464-1.459c-0.236-0.231-0.498-0.162-0.578,0.162l-0.475,1.906
			c-0.08,0.328,0.119,0.527,0.446,0.447L13.393,28.474z"/>
	</g>
</g>
</svg>
