<?xml version="1.0" encoding="utf-8"?>
<!-- Generator: Adobe Illustrator 15.0.0, SVG Export Plug-In  -->
<!DOCTYPE svg PUBLIC "-//W3C//DTD SVG 1.1//EN" "http://www.w3.org/Graphics/SVG/1.1/DTD/svg11.dtd" [
	<!ENTITY ns_flows "http://ns.adobe.com/Flows/1.0/">
]>
<svg version="1.1"
	 xmlns="http://www.w3.org/2000/svg" xmlns:xlink="http://www.w3.org/1999/xlink" xmlns:a="http://ns.adobe.com/AdobeSVGViewerExtensions/3.0/"
	 x="0px" y="0px" width="19px" height="19px" viewBox="-2.483 -3.786 19 19" enable-background="new -2.483 -3.786 19 19"
	 xml:space="preserve">
<defs>
</defs>
<path display="none" fill="#21A1C4" stroke="#21A1C4" d="M7.013,11.214C4.856,8.822,0.5,7.836,0.5,3.999
	c0-1.625,0.917-3.122,2.592-3.432c1.78-0.33,2.777,0.613,3.917,1.745c1.139-1.131,2.137-2.074,3.917-1.745
	c1.675,0.31,2.592,1.808,2.592,3.432C13.517,7.836,9.17,8.822,7.013,11.214z"/>
<path display="none" fill="none" stroke="#000000" d="M7.013,11.214C4.856,8.822,0.5,7.836,0.5,3.999
	c0-1.625,0.917-3.122,2.592-3.432c1.78-0.33,2.777,0.613,3.917,1.745c1.139-1.131,2.137-2.074,3.917-1.745
	c1.675,0.31,2.592,1.808,2.592,3.432C13.517,7.836,9.17,8.822,7.013,11.214z"/>
<path onclick="mv" display="none" opacity="0.56" stroke="#000000" d="M7.013,11.214C4.856,8.822,0.5,7.836,0.5,3.999
	c0-1.625,0.917-3.122,2.592-3.432c1.78-0.33,2.777,0.613,3.917,1.745c1.139-1.131,2.137-2.074,3.917-1.745
	c1.675,0.31,2.592,1.808,2.592,3.432C13.517,7.836,9.17,8.822,7.013,11.214z"/>
<path display="none" opacity="0.56" fill="none" stroke="#000000" d="M7.013,11.214C4.856,8.822,0.5,7.836,0.5,3.999
	c0-1.625,0.917-3.122,2.592-3.432c1.78-0.33,2.777,0.613,3.917,1.745c1.139-1.131,2.137-2.074,3.917-1.745
	c1.675,0.31,2.592,1.808,2.592,3.432C13.517,7.836,9.17,8.822,7.013,11.214z"/>
<path onclick="mv" display="none" opacity="0.25" stroke="#000000" d="M7.013,11.214C4.856,8.822,0.5,7.836,0.5,3.999
	c0-1.625,0.917-3.122,2.592-3.432c1.78-0.33,2.777,0.613,3.917,1.745c1.139-1.131,2.137-2.074,3.917-1.745
	c1.675,0.31,2.592,1.808,2.592,3.432C13.517,7.836,9.17,8.822,7.013,11.214z"/>
<path display="none" opacity="0.25" fill="none" stroke="#000000" d="M7.013,11.214C4.856,8.822,0.5,7.836,0.5,3.999
	c0-1.625,0.917-3.122,2.592-3.432c1.78-0.33,2.777,0.613,3.917,1.745c1.139-1.131,2.137-2.074,3.917-1.745
	c1.675,0.31,2.592,1.808,2.592,3.432C13.517,7.836,9.17,8.822,7.013,11.214z"/>
<path onclick="mv" display="none" opacity="0.65" fill-opacity="0.45" d="M7.013,11.214C4.856,8.822,0.5,7.836,0.5,3.999
	c0-1.625,0.917-3.122,2.592-3.432c1.78-0.33,2.777,0.613,3.917,1.745c1.139-1.131,2.137-2.074,3.917-1.745
	c1.675,0.31,2.592,1.808,2.592,3.432C13.517,7.836,9.17,8.822,7.013,11.214z"/>
<path display="none" fill="#4617B4" d="M7.013,11.214C4.856,8.822,0.5,7.836,0.5,3.999c0-1.625,0.917-3.122,2.592-3.432
	c1.78-0.33,2.777,0.613,3.917,1.745c1.139-1.131,2.137-2.074,3.917-1.745c1.675,0.31,2.592,1.808,2.592,3.432
	C13.517,7.836,9.17,8.822,7.013,11.214z"/>
<path display="none" fill="#5B2EC5" d="M7.013,11.214C4.856,8.822,0.5,7.836,0.5,3.999c0-1.625,0.917-3.122,2.592-3.432
	c1.78-0.33,2.777,0.613,3.917,1.745c1.139-1.131,2.137-2.074,3.917-1.745c1.675,0.31,2.592,1.808,2.592,3.432
	C13.517,7.836,9.17,8.822,7.013,11.214z"/>
<path display="none" fill="#7241E4" d="M7.013,11.214C4.856,8.822,0.5,7.836,0.5,3.999c0-1.625,0.917-3.122,2.592-3.432
	c1.78-0.33,2.777,0.613,3.917,1.745c1.139-1.131,2.137-2.074,3.917-1.745c1.675,0.31,2.592,1.808,2.592,3.432
	C13.517,7.836,9.17,8.822,7.013,11.214z"/>
<path d="M7.013,11.214C4.856,8.822,0.5,7.836,0.5,3.999c0-1.625,0.917-3.122,2.592-3.432c1.78-0.33,2.777,0.613,3.917,1.745
	c1.139-1.131,2.137-2.074,3.917-1.745c1.675,0.31,2.592,1.808,2.592,3.432C13.517,7.836,9.17,8.822,7.013,11.214z"/>
</svg>
