<?xml version="1.0" encoding="utf-8"?>
<!-- Generator: Adobe Illustrator 15.0.2, SVG Export Plug-In . SVG Version: 6.00 Build 0)  -->
<!DOCTYPE svg PUBLIC "-//W3C//DTD SVG 1.1//EN" "http://www.w3.org/Graphics/SVG/1.1/DTD/svg11.dtd">
<svg version="1.1" xmlns="http://www.w3.org/2000/svg" xmlns:xlink="http://www.w3.org/1999/xlink" x="0px" y="0px"
	 width="49.667px" height="43px" viewBox="0 0 49.667 43" enable-background="new 0 0 49.667 43" xml:space="preserve">
<g id="Layer_2">
	<polygon fill="none" points="29.564,18.117 39.376,24.199 43.354,15.394 35.822,10.817 	"/>
</g>
<g id="Layer_1">
	<g>
		<path fill="none" stroke="#BCBEC0" stroke-width="2" stroke-miterlimit="10" d="M30.106,17.101
			c-1.228,3.164-3.116,7.211-5.699,10.499c-5.6,7.126-10.982,7.794-13.847,6.199c-4.577-2.549-6.913,2.649-2.086,5.504
			c8.227,4.867,17.581,3.19,24.739-5.388c2.999-3.595,5.981-9.075,7.465-12.602"/>
		<path fill="none" stroke="#BCBEC0" stroke-width="2" stroke-miterlimit="10" d="M27.71,18.117l2.396-1.017l6.181-3.712
			l-0.44,6.762l4.546-4.36l0.527,10.148c0,0,2.447-5.412,3.708-9.328c1.397-4.352-0.855-7.356-1.251-7.719
			c-0.396-0.36,3.105-6.465,3.105-6.465l-6.311,5.417c0,0-3.336-1.07-5.508,0.14c-2.223,1.239-3.776,3.138-3.774,3.136
			C30.889,11.121,28.771,13.802,27.71,18.117z"/>
	</g>
</g>
</svg>
