<?xml version="1.0" encoding="utf-8"?>
<!-- Generator: Adobe Illustrator 15.0.2, SVG Export Plug-In  -->
<!DOCTYPE svg PUBLIC "-//W3C//DTD SVG 1.1//EN" "http://www.w3.org/Graphics/SVG/1.1/DTD/svg11.dtd" [
	<!ENTITY ns_flows "http://ns.adobe.com/Flows/1.0/">
]>
<svg version="1.1"
	 xmlns="http://www.w3.org/2000/svg" xmlns:xlink="http://www.w3.org/1999/xlink" xmlns:a="http://ns.adobe.com/AdobeSVGViewerExtensions/3.0/"
	 x="0px" y="0px" width="23px" height="21px" viewBox="-3.214 -3.697 23 21" enable-background="new -3.214 -3.697 23 21"
	 xml:space="preserve">
<defs>
</defs>
<path fill="#F3F3F3" d="M8.282,1.941C8.57,1.58,8.912,1.258,9.307,0.975c0.167-0.122,0.355-0.242,0.566-0.358
	s0.441-0.221,0.691-0.312c0.25-0.092,0.521-0.166,0.813-0.222C11.669,0.027,11.981,0,12.314,0c0.661,0,1.255,0.115,1.783,0.346
	c0.527,0.23,0.975,0.547,1.342,0.949c0.366,0.403,0.646,0.875,0.841,1.417s0.292,1.12,0.292,1.737c0,0.583-0.118,1.16-0.354,1.729
	c-0.236,0.57-0.547,1.123-0.933,1.662c-0.387,0.539-0.828,1.056-1.325,1.551c-0.497,0.494-1.004,0.955-1.521,1.383
	s-1.022,0.814-1.517,1.162s-0.938,0.645-1.329,0.891c-0.392,0.248-0.706,0.439-0.945,0.576c-0.239,0.135-0.361,0.203-0.366,0.203
	c-0.006,0-0.087-0.043-0.242-0.129s-0.366-0.211-0.633-0.375s-0.576-0.362-0.93-0.596c-0.353-0.232-0.728-0.494-1.124-0.783
	c-0.397-0.289-0.806-0.605-1.225-0.949c-0.42-0.345-0.828-0.709-1.226-1.092c-0.396-0.383-0.771-0.785-1.12-1.204
	c-0.351-0.419-0.658-0.85-0.925-1.292c-0.267-0.441-0.477-0.891-0.629-1.35C0.076,5.378,0,4.916,0,4.449
	c0-0.617,0.097-1.195,0.292-1.737C0.486,2.17,0.767,1.698,1.133,1.295C1.5,0.893,1.946,0.576,2.475,0.346
	C3.002,0.115,3.597,0,4.258,0c0.333,0,0.646,0.027,0.938,0.083c0.291,0.056,0.562,0.13,0.812,0.222
	c0.25,0.091,0.48,0.195,0.692,0.312C6.91,0.732,7.099,0.853,7.266,0.975C7.66,1.258,7.999,1.58,8.282,1.941z M8.282,12.114
	c1.294-0.788,2.452-1.613,3.474-2.475c0.434-0.366,0.858-0.758,1.275-1.175c0.416-0.416,0.787-0.848,1.112-1.295
	s0.587-0.901,0.787-1.363c0.2-0.461,0.3-0.918,0.3-1.374c0-0.483-0.07-0.925-0.212-1.325s-0.339-0.741-0.592-1.024
	c-0.253-0.284-0.553-0.503-0.9-0.658c-0.347-0.155-0.729-0.233-1.146-0.233c-0.389,0-0.757,0.056-1.104,0.166
	c-0.348,0.111-0.667,0.25-0.958,0.417c-0.292,0.167-0.558,0.352-0.796,0.554c-0.239,0.203-0.444,0.396-0.616,0.58
	C8.734,3.091,8.595,3.252,8.486,3.391S8.31,3.619,8.282,3.658C7.954,3.197,7.579,2.785,7.157,2.424
	C6.979,2.27,6.782,2.117,6.565,1.971c-0.217-0.147-0.45-0.279-0.7-0.396C5.615,1.458,5.351,1.365,5.07,1.295
	C4.789,1.227,4.496,1.191,4.19,1.191c-0.416,0-0.798,0.078-1.146,0.233C2.698,1.58,2.398,1.799,2.146,2.083
	c-0.253,0.283-0.45,0.624-0.592,1.024S1.342,3.949,1.342,4.433c0,0.456,0.099,0.913,0.295,1.374C1.834,6.269,2.096,6.723,2.42,7.17
	c0.325,0.447,0.696,0.879,1.112,1.295C3.949,8.882,4.374,9.273,4.808,9.64C5.824,10.501,6.982,11.326,8.282,12.114z"/>
</svg>
