<?xml version="1.0" encoding="utf-8"?>
<!-- Generator: Adobe Illustrator 15.0.0, SVG Export Plug-In  -->
<!DOCTYPE svg PUBLIC "-//W3C//DTD SVG 1.1//EN" "http://www.w3.org/Graphics/SVG/1.1/DTD/svg11.dtd" [
	<!ENTITY ns_flows "http://ns.adobe.com/Flows/1.0/">
]>
<svg version="1.1"
	 xmlns="http://www.w3.org/2000/svg" xmlns:xlink="http://www.w3.org/1999/xlink" xmlns:a="http://ns.adobe.com/AdobeSVGViewerExtensions/3.0/"
	 x="0px" y="0px" width="14px" height="12px" viewBox="-0.301 -0.5 14 12" enable-background="new -0.301 -0.5 14 12"
	 xml:space="preserve">
<defs>
</defs>
<path fill="#FFFFFF" d="M6.696,1.569c0.233-0.292,0.509-0.552,0.829-0.781c0.134-0.099,0.287-0.195,0.458-0.29
	C8.153,0.404,8.339,0.32,8.541,0.246c0.203-0.074,0.421-0.134,0.657-0.179C9.434,0.022,9.686,0,9.956,0
	c0.534,0,1.015,0.093,1.441,0.279s0.788,0.442,1.084,0.768s0.523,0.708,0.681,1.145c0.157,0.438,0.236,0.906,0.236,1.405
	c0,0.472-0.096,0.937-0.287,1.397s-0.442,0.908-0.754,1.344s-0.669,0.854-1.071,1.253c-0.401,0.4-0.812,0.772-1.229,1.119
	C9.64,9.056,9.231,9.369,8.831,9.649C8.432,9.93,8.073,10.17,7.756,10.37c-0.316,0.2-0.571,0.355-0.764,0.465
	C6.799,10.945,6.7,11,6.696,11c-0.004,0-0.07-0.035-0.196-0.104c-0.125-0.07-0.296-0.171-0.512-0.304
	C5.773,10.46,5.522,10.3,5.237,10.111c-0.285-0.189-0.588-0.4-0.909-0.633C4.007,9.244,3.677,8.988,3.337,8.71
	c-0.339-0.278-0.669-0.573-0.99-0.883c-0.321-0.31-0.623-0.634-0.906-0.973C1.159,6.515,0.909,6.167,0.694,5.81
	C0.478,5.453,0.309,5.089,0.186,4.719C0.062,4.348,0,3.974,0,3.597C0,3.099,0.079,2.63,0.236,2.192
	C0.393,1.755,0.62,1.373,0.917,1.047c0.296-0.326,0.657-0.582,1.084-0.768C2.427,0.093,2.908,0,3.442,0
	C3.711,0,3.964,0.022,4.2,0.067c0.235,0.045,0.455,0.104,0.656,0.179C5.059,0.32,5.246,0.404,5.416,0.499
	c0.171,0.094,0.324,0.19,0.458,0.29C6.193,1.017,6.467,1.278,6.696,1.569z M6.696,9.794c1.046-0.637,1.982-1.304,2.809-2
	c0.35-0.296,0.694-0.613,1.03-0.95c0.337-0.336,0.637-0.686,0.899-1.047c0.263-0.361,0.475-0.729,0.636-1.102
	c0.162-0.373,0.243-0.743,0.243-1.111c0-0.39-0.058-0.748-0.172-1.071c-0.115-0.323-0.274-0.6-0.479-0.829
	c-0.204-0.229-0.447-0.406-0.727-0.532c-0.281-0.126-0.59-0.189-0.926-0.189c-0.314,0-0.612,0.045-0.893,0.135
	C8.836,1.188,8.578,1.3,8.342,1.435s-0.45,0.284-0.643,0.448C7.506,2.046,7.34,2.203,7.201,2.351
	C7.062,2.499,6.948,2.629,6.86,2.741C6.773,2.854,6.718,2.926,6.696,2.958C6.431,2.584,6.127,2.252,5.786,1.96
	C5.643,1.834,5.483,1.712,5.308,1.593c-0.175-0.12-0.364-0.226-0.566-0.32C4.54,1.179,4.326,1.104,4.099,1.047
	c-0.227-0.056-0.463-0.084-0.71-0.084c-0.337,0-0.646,0.063-0.926,0.189C2.181,1.278,1.939,1.455,1.734,1.684
	C1.53,1.913,1.371,2.189,1.256,2.513S1.084,3.193,1.084,3.583c0,0.369,0.08,0.739,0.239,1.111c0.16,0.373,0.371,0.74,0.633,1.102
	c0.263,0.362,0.563,0.711,0.9,1.047c0.337,0.337,0.68,0.654,1.03,0.95C4.708,8.49,5.645,9.157,6.696,9.794z"/>
</svg>
