<?xml version="1.0" encoding="utf-8"?>
<!-- Generator: Adobe Illustrator 15.0.2, SVG Export Plug-In  -->
<!DOCTYPE svg PUBLIC "-//W3C//DTD SVG 1.1//EN" "http://www.w3.org/Graphics/SVG/1.1/DTD/svg11.dtd" [
	<!ENTITY ns_flows "http://ns.adobe.com/Flows/1.0/">
]>
<svg version="1.1"
	 xmlns="http://www.w3.org/2000/svg" xmlns:xlink="http://www.w3.org/1999/xlink" xmlns:a="http://ns.adobe.com/AdobeSVGViewerExtensions/3.0/"
	 x="0px" y="0px" width="34px" height="29px" viewBox="-2.644 -2.713 34 29" enable-background="new -2.644 -2.713 34 29"
	 xml:space="preserve">
<defs>
</defs>
<path fill="#989898" d="M14.35,3.363c0.5-0.625,1.092-1.184,1.775-1.674c0.289-0.211,0.615-0.418,0.981-0.621
	c0.366-0.201,0.766-0.383,1.198-0.541s0.902-0.286,1.407-0.383C20.218,0.049,20.759,0,21.336,0c1.146,0,2.175,0.2,3.09,0.6
	c0.914,0.399,1.688,0.947,2.323,1.646c0.636,0.698,1.121,1.516,1.458,2.454s0.506,1.941,0.506,3.01c0,1.011-0.205,2.009-0.613,2.996
	c-0.409,0.986-0.948,1.945-1.617,2.879s-1.435,1.828-2.295,2.686c-0.861,0.856-1.74,1.655-2.635,2.396
	c-0.896,0.74-1.771,1.412-2.627,2.014c-0.857,0.602-1.624,1.116-2.303,1.545c-0.679,0.428-1.225,0.76-1.639,0.995
	s-0.626,0.354-0.635,0.354c-0.01,0-0.149-0.075-0.419-0.225c-0.27-0.148-0.635-0.365-1.097-0.649s-0.999-0.628-1.61-1.032
	c-0.61-0.404-1.261-0.856-1.948-1.357c-0.688-0.5-1.396-1.049-2.122-1.645c-0.727-0.598-1.435-1.228-2.122-1.892
	c-0.688-0.664-1.335-1.358-1.941-2.086c-0.606-0.727-1.141-1.472-1.603-2.237s-0.825-1.545-1.09-2.339S0,8.518,0,7.709
	c0-1.068,0.169-2.071,0.506-3.01s0.822-1.756,1.458-2.454C2.599,1.547,3.373,0.999,4.288,0.6C5.202,0.2,6.231,0,7.377,0
	c0.577,0,1.119,0.049,1.624,0.145c0.505,0.097,0.975,0.225,1.407,0.383c0.434,0.158,0.833,0.34,1.198,0.541
	c0.366,0.203,0.693,0.41,0.981,0.621C13.271,2.18,13.858,2.738,14.35,3.363z M14.35,20.99c2.242-1.367,4.248-2.796,6.02-4.288
	c0.75-0.635,1.486-1.313,2.208-2.035c0.723-0.722,1.364-1.47,1.928-2.245c0.563-0.774,1.018-1.561,1.364-2.359
	s0.52-1.594,0.52-2.383c0-0.837-0.123-1.602-0.368-2.295S25.434,4.1,24.995,3.609c-0.438-0.49-0.957-0.871-1.559-1.141
	s-1.263-0.404-1.985-0.404c-0.673,0-1.311,0.097-1.912,0.289s-1.155,0.434-1.66,0.722s-0.965,0.608-1.379,0.96
	s-0.77,0.686-1.068,1.004c-0.298,0.316-0.541,0.596-0.729,0.836c-0.188,0.241-0.306,0.396-0.354,0.463
	c-0.568-0.799-1.218-1.512-1.949-2.137c-0.308-0.27-0.649-0.531-1.024-0.787C11,3.16,10.596,2.931,10.163,2.729
	C9.73,2.527,9.271,2.365,8.784,2.245c-0.485-0.12-0.993-0.181-1.522-0.181c-0.722,0-1.384,0.135-1.985,0.404
	s-1.121,0.65-1.559,1.141C3.279,4.1,2.938,4.691,2.692,5.385C2.447,6.078,2.324,6.843,2.324,7.68c0,0.789,0.171,1.584,0.513,2.383
	s0.794,1.585,1.357,2.359c0.563,0.775,1.205,1.523,1.927,2.245s1.458,1.4,2.209,2.035C10.091,18.194,12.098,19.623,14.35,20.99z"/>
</svg>
