<?xml version="1.0" encoding="utf-8"?>
<!-- Generator: Adobe Illustrator 15.1.0, SVG Export Plug-In . SVG Version: 6.00 Build 0)  -->
<!DOCTYPE svg PUBLIC "-//W3C//DTD SVG 1.1//EN" "http://www.w3.org/Graphics/SVG/1.1/DTD/svg11.dtd">
<svg version="1.1" id="Layer_1" xmlns="http://www.w3.org/2000/svg" xmlns:xlink="http://www.w3.org/1999/xlink" x="0px" y="0px"
	 width="18px" height="16px" viewBox="-3.051 -3.039 18 16" enable-background="new -3.051 -3.039 18 16" xml:space="preserve">
<path fill="#989898" d="M5.945,0.293C6.223-0.053,6.551-0.363,6.93-0.634c0.16-0.118,0.341-0.232,0.543-0.345
	c0.203-0.111,0.425-0.212,0.664-0.3c0.239-0.087,0.5-0.158,0.779-0.212c0.281-0.053,0.581-0.08,0.9-0.08
	c0.635,0,1.206,0.111,1.712,0.333s0.936,0.525,1.287,0.912c0.353,0.387,0.622,0.84,0.809,1.36s0.279,1.075,0.279,1.667
	c0,0.561-0.113,1.113-0.339,1.66c-0.227,0.546-0.525,1.078-0.896,1.595c-0.371,0.517-0.795,1.012-1.272,1.488
	c-0.476,0.474-0.963,0.917-1.459,1.328c-0.496,0.41-0.98,0.782-1.455,1.116c-0.476,0.334-0.899,0.618-1.276,0.855
	c-0.376,0.238-0.679,0.422-0.907,0.551c-0.23,0.131-0.348,0.197-0.353,0.197s-0.082-0.042-0.231-0.126
	c-0.15-0.081-0.353-0.202-0.608-0.359c-0.256-0.158-0.554-0.348-0.892-0.571c-0.339-0.224-0.699-0.475-1.079-0.752
	C2.753,9.408,2.36,9.103,1.958,8.773C1.556,8.441,1.163,8.092,0.782,7.725C0.401,7.356,0.043,6.972-0.293,6.568
	c-0.336-0.403-0.632-0.816-0.888-1.239c-0.256-0.424-0.457-0.855-0.604-1.296c-0.147-0.44-0.221-0.883-0.221-1.332
	c0-0.592,0.094-1.147,0.28-1.667s0.455-0.973,0.808-1.36s0.781-0.69,1.288-0.912S1.447-1.57,2.082-1.57
	c0.32,0,0.621,0.027,0.9,0.081c0.279,0.054,0.54,0.125,0.779,0.212c0.24,0.088,0.462,0.189,0.664,0.3
	C4.629-0.865,4.81-0.751,4.969-0.634C5.349-0.362,5.674-0.053,5.945,0.293z M5.945,10.06C7.188,9.302,8.3,8.51,9.281,7.684
	c0.416-0.352,0.823-0.728,1.224-1.128c0.399-0.4,0.755-0.814,1.067-1.244s0.563-0.865,0.757-1.307
	c0.191-0.442,0.288-0.883,0.288-1.32c0-0.464-0.068-0.887-0.204-1.272c-0.136-0.383-0.326-0.711-0.569-0.984
	c-0.242-0.271-0.53-0.482-0.864-0.632c-0.333-0.149-0.699-0.223-1.099-0.223c-0.374,0-0.727,0.054-1.06,0.16
	c-0.333,0.107-0.641,0.241-0.92,0.4c-0.28,0.16-0.535,0.337-0.765,0.532c-0.229,0.195-0.426,0.38-0.591,0.557
	c-0.166,0.174-0.3,0.33-0.404,0.463c-0.104,0.134-0.17,0.219-0.196,0.256c-0.314-0.442-0.675-0.837-1.08-1.184
	C4.694,0.608,4.506,0.463,4.299,0.321C4.09,0.181,3.866,0.054,3.626-0.058C3.387-0.17,3.132-0.259,2.862-0.326
	c-0.269-0.066-0.551-0.1-0.844-0.1c-0.399,0-0.767,0.075-1.1,0.223C0.586-0.054,0.298,0.158,0.055,0.429
	c-0.243,0.272-0.432,0.6-0.567,0.984c-0.137,0.385-0.204,0.808-0.204,1.272c0,0.437,0.095,0.877,0.283,1.32
	c0.19,0.443,0.44,0.878,0.753,1.307c0.312,0.429,0.668,0.844,1.067,1.244c0.4,0.4,0.808,0.776,1.224,1.128
	C3.586,8.51,4.698,9.302,5.945,10.06z"/>
</svg>
