<?xml version="1.0" encoding="utf-8"?>
<!-- Generator: Adobe Illustrator 15.0.2, SVG Export Plug-In  -->
<!DOCTYPE svg PUBLIC "-//W3C//DTD SVG 1.1//EN" "http://www.w3.org/Graphics/SVG/1.1/DTD/svg11.dtd" [
	<!ENTITY ns_flows "http://ns.adobe.com/Flows/1.0/">
]>
<svg version="1.1"
	 xmlns="http://www.w3.org/2000/svg" xmlns:xlink="http://www.w3.org/1999/xlink" xmlns:a="http://ns.adobe.com/AdobeSVGViewerExtensions/3.0/"
	 x="0px" y="0px" width="34px" height="29px" viewBox="-2.644 -2.714 34 29" enable-background="new -2.644 -2.714 34 29"
	 xml:space="preserve">
<defs>
</defs>
<path fill="#FF426C" d="M14.35,3.363c0.5-0.626,1.092-1.184,1.775-1.675c0.289-0.212,0.615-0.419,0.981-0.62
	c0.366-0.203,0.766-0.383,1.198-0.542s0.902-0.286,1.407-0.382C20.218,0.048,20.759,0,21.336,0c1.146,0,2.175,0.199,3.09,0.599
	c0.914,0.399,1.688,0.948,2.323,1.646c0.636,0.697,1.121,1.516,1.458,2.454s0.506,1.941,0.506,3.01c0,1.011-0.205,2.009-0.613,2.995
	c-0.409,0.986-0.948,1.947-1.617,2.881s-1.435,1.828-2.295,2.684c-0.861,0.857-1.74,1.656-2.635,2.396
	c-0.896,0.742-1.771,1.413-2.627,2.014c-0.857,0.602-1.624,1.117-2.303,1.545c-0.679,0.429-1.225,0.76-1.639,0.996
	s-0.626,0.354-0.635,0.354c-0.01,0-0.149-0.074-0.419-0.223c-0.27-0.15-0.635-0.367-1.097-0.65s-0.999-0.628-1.61-1.032
	c-0.61-0.403-1.261-0.856-1.948-1.356c-0.688-0.5-1.396-1.049-2.122-1.646c-0.727-0.596-1.435-1.227-2.122-1.891
	c-0.688-0.664-1.335-1.359-1.941-2.086s-1.141-1.473-1.603-2.237s-0.825-1.545-1.09-2.339S0,8.517,0,7.708
	c0-1.068,0.169-2.071,0.506-3.01s0.822-1.757,1.458-2.454c0.635-0.697,1.409-1.246,2.324-1.646C5.202,0.199,6.231,0,7.377,0
	c0.577,0,1.119,0.048,1.624,0.145c0.505,0.096,0.975,0.223,1.407,0.382c0.434,0.159,0.833,0.339,1.198,0.542
	c0.366,0.201,0.693,0.408,0.981,0.62C13.271,2.18,13.858,2.737,14.35,3.363z"/>
</svg>
