<?xml version="1.0" encoding="utf-8"?>
<!-- Generator: Adobe Illustrator 15.0.2, SVG Export Plug-In  -->
<!DOCTYPE svg PUBLIC "-//W3C//DTD SVG 1.1//EN" "http://www.w3.org/Graphics/SVG/1.1/DTD/svg11.dtd" [
	<!ENTITY ns_flows "http://ns.adobe.com/Flows/1.0/">
]>
<svg version="1.1"
	 xmlns="http://www.w3.org/2000/svg" xmlns:xlink="http://www.w3.org/1999/xlink" xmlns:a="http://ns.adobe.com/AdobeSVGViewerExtensions/3.0/"
	 x="0px" y="0px" width="23px" height="21px" viewBox="-3.714 -3.697 23 21" enable-background="new -3.714 -3.697 23 21"
	 xml:space="preserve">
<defs>
</defs>
<path fill="#EE2A5D" d="M8.282,1.941C8.57,1.58,8.912,1.258,9.307,0.975c0.167-0.122,0.355-0.242,0.566-0.358
	s0.441-0.221,0.691-0.312c0.25-0.092,0.521-0.166,0.813-0.222C11.669,0.027,11.981,0,12.314,0c0.661,0,1.255,0.115,1.783,0.346
	c0.527,0.23,0.975,0.547,1.342,0.949c0.366,0.403,0.646,0.875,0.841,1.417s0.292,1.12,0.292,1.737c0,0.583-0.118,1.16-0.354,1.729
	c-0.236,0.57-0.547,1.123-0.933,1.662c-0.387,0.539-0.828,1.056-1.325,1.551c-0.497,0.494-1.004,0.955-1.521,1.383
	s-1.022,0.814-1.517,1.162s-0.938,0.645-1.329,0.891c-0.392,0.248-0.706,0.439-0.945,0.576c-0.239,0.135-0.361,0.203-0.366,0.203
	c-0.006,0-0.087-0.043-0.242-0.129s-0.366-0.211-0.633-0.375s-0.576-0.362-0.93-0.596c-0.353-0.232-0.728-0.494-1.124-0.783
	c-0.397-0.289-0.806-0.605-1.225-0.949c-0.42-0.345-0.828-0.709-1.226-1.092c-0.396-0.383-0.771-0.785-1.12-1.204
	c-0.351-0.419-0.658-0.85-0.925-1.292c-0.267-0.441-0.477-0.891-0.629-1.35C0.076,5.378,0,4.916,0,4.449
	c0-0.617,0.097-1.195,0.292-1.737C0.486,2.17,0.767,1.698,1.133,1.295C1.5,0.893,1.946,0.576,2.475,0.346
	C3.002,0.115,3.597,0,4.258,0c0.333,0,0.646,0.027,0.938,0.083c0.291,0.056,0.562,0.13,0.812,0.222
	c0.25,0.091,0.48,0.195,0.692,0.312C6.91,0.732,7.099,0.853,7.266,0.975C7.66,1.258,7.999,1.58,8.282,1.941z"/>
</svg>
