<?xml version="1.0" encoding="utf-8"?>
<!-- Generator: Adobe Illustrator 15.0.0, SVG Export Plug-In  -->
<!DOCTYPE svg PUBLIC "-//W3C//DTD SVG 1.1//EN" "http://www.w3.org/Graphics/SVG/1.1/DTD/svg11.dtd" [
	<!ENTITY ns_flows "http://ns.adobe.com/Flows/1.0/">
]>
<svg version="1.1"
	 xmlns="http://www.w3.org/2000/svg" xmlns:xlink="http://www.w3.org/1999/xlink" xmlns:a="http://ns.adobe.com/AdobeSVGViewerExtensions/3.0/"
	 x="0px" y="0px" width="14px" height="12px" viewBox="-0.301 -0.5 14 12" enable-background="new -0.301 -0.5 14 12"
	 xml:space="preserve">
<defs>
</defs>
<path fill="#FF426C" d="M6.695,1.569c0.233-0.292,0.511-0.552,0.828-0.781c0.136-0.099,0.288-0.195,0.459-0.29
	C8.153,0.404,8.339,0.32,8.541,0.246s0.421-0.134,0.657-0.179C9.434,0.022,9.687,0,9.956,0c0.535,0,1.015,0.093,1.441,0.279
	s0.788,0.442,1.085,0.768c0.295,0.326,0.523,0.708,0.68,1.145c0.157,0.438,0.235,0.906,0.235,1.405c0,0.472-0.095,0.937-0.285,1.397
	c-0.191,0.46-0.443,0.908-0.755,1.344c-0.313,0.436-0.669,0.854-1.07,1.253c-0.403,0.4-0.813,0.772-1.23,1.119
	C9.639,9.056,9.23,9.369,8.831,9.649S8.072,10.17,7.757,10.37c-0.316,0.2-0.571,0.355-0.765,0.465C6.799,10.945,6.7,11,6.695,11
	c-0.004,0-0.069-0.035-0.195-0.104c-0.126-0.07-0.297-0.171-0.512-0.304C5.772,10.46,5.522,10.3,5.236,10.111
	c-0.284-0.189-0.587-0.4-0.908-0.633c-0.321-0.234-0.651-0.49-0.99-0.768c-0.34-0.278-0.67-0.573-0.99-0.883
	c-0.321-0.31-0.623-0.634-0.906-0.973C1.159,6.515,0.91,6.167,0.694,5.81c-0.216-0.357-0.386-0.721-0.51-1.091
	C0.062,4.348,0,3.974,0,3.597C0,3.099,0.078,2.63,0.235,2.192C0.394,1.755,0.62,1.373,0.916,1.047C1.213,0.722,1.574,0.466,2,0.279
	C2.428,0.093,2.908,0,3.441,0C3.711,0,3.964,0.022,4.2,0.067c0.235,0.045,0.454,0.104,0.656,0.179s0.389,0.158,0.56,0.252
	c0.17,0.094,0.323,0.19,0.458,0.29C6.193,1.017,6.467,1.278,6.695,1.569z"/>
</svg>
