<?xml version="1.0" encoding="utf-8"?>
<!-- Generator: Adobe Illustrator 15.1.0, SVG Export Plug-In . SVG Version: 6.00 Build 0)  -->
<!DOCTYPE svg PUBLIC "-//W3C//DTD SVG 1.1//EN" "http://www.w3.org/Graphics/SVG/1.1/DTD/svg11.dtd">
<svg version="1.1" id="Layer_1" xmlns="http://www.w3.org/2000/svg" xmlns:xlink="http://www.w3.org/1999/xlink" x="0px" y="0px"
	 width="18px" height="16px" viewBox="-1.046 -1.469 18 16" enable-background="new -1.046 -1.469 18 16" xml:space="preserve">
<path fill="#FF426C" d="M7.952,1.863c0.276-0.348,0.604-0.656,0.983-0.929c0.159-0.116,0.341-0.231,0.543-0.343
	c0.203-0.111,0.425-0.212,0.664-0.3s0.499-0.159,0.778-0.212C11.202,0.027,11.503,0,11.821,0c0.635,0,1.205,0.111,1.711,0.332
	s0.936,0.525,1.287,0.912c0.354,0.387,0.621,0.84,0.809,1.36c0.188,0.52,0.279,1.075,0.279,1.667c0,0.561-0.113,1.112-0.34,1.659
	c-0.225,0.546-0.523,1.079-0.895,1.597s-0.795,1.014-1.273,1.486c-0.475,0.477-0.963,0.918-1.459,1.328
	c-0.494,0.412-0.979,0.783-1.455,1.117c-0.475,0.332-0.898,0.617-1.275,0.855c-0.375,0.236-0.679,0.42-0.907,0.551
	c-0.23,0.131-0.348,0.197-0.353,0.197s-0.083-0.041-0.231-0.125c-0.15-0.082-0.354-0.203-0.608-0.359
	c-0.256-0.156-0.553-0.348-0.892-0.572c-0.339-0.223-0.699-0.475-1.079-0.75c-0.381-0.279-0.773-0.582-1.176-0.914
	c-0.403-0.33-0.795-0.68-1.176-1.047c-0.382-0.369-0.74-0.754-1.075-1.156C1.377,7.736,1.081,7.324,0.824,6.899
	C0.568,6.475,0.367,6.044,0.221,5.604c-0.147-0.44-0.22-0.886-0.22-1.333c0-0.593,0.094-1.148,0.279-1.667
	c0.188-0.521,0.455-0.975,0.809-1.36C1.44,0.857,1.87,0.553,2.377,0.332C2.883,0.111,3.453,0,4.088,0
	c0.319,0,0.621,0.027,0.899,0.08c0.279,0.053,0.54,0.124,0.779,0.212c0.24,0.088,0.461,0.188,0.664,0.3s0.384,0.227,0.543,0.345
	C7.354,1.208,7.68,1.515,7.952,1.863z"/>
</svg>
