<?xml version="1.0" encoding="utf-8"?>
<!-- Generator: Adobe Illustrator 15.0.2, SVG Export Plug-In  -->
<!DOCTYPE svg PUBLIC "-//W3C//DTD SVG 1.1//EN" "http://www.w3.org/Graphics/SVG/1.1/DTD/svg11.dtd" [
	<!ENTITY ns_flows "http://ns.adobe.com/Flows/1.0/">
]>
<svg version="1.1"
	 xmlns="http://www.w3.org/2000/svg" xmlns:xlink="http://www.w3.org/1999/xlink" xmlns:a="http://ns.adobe.com/AdobeSVGViewerExtensions/3.0/"
	 x="0px" y="0px" width="40px" height="40px" viewBox="6.37 3.458 40 40" enable-background="new 6.37 3.458 40 40"
	 xml:space="preserve">
<defs>
</defs>
<path d="M26.346,3.958c0.863,0,1.738,0.058,2.619,0.176C39.64,5.572,47.13,15.383,45.693,26.056
	c-1.32,9.789-9.689,16.902-19.3,16.902c-0.862,0-1.738-0.061-2.621-0.178C13.1,41.347,5.609,31.536,7.046,20.862
	C8.36,11.068,16.73,3.958,26.346,3.958 M26.346,6.439c-8.474,0-15.713,6.343-16.842,14.75c-0.605,4.506,0.578,8.979,3.336,12.592
	c2.756,3.609,6.758,5.936,11.262,6.539c0.763,0.104,1.533,0.154,2.291,0.154c8.468,0,15.71-6.344,16.841-14.754
	c0.607-4.502-0.578-8.973-3.334-12.587c-2.76-3.614-6.762-5.938-11.268-6.545C27.876,6.491,27.105,6.439,26.346,6.439"/>
<g>
	<defs>
		<path id="SVGID_1_" d="M22.946,9.349c-7.027,1.695-11.763,8.403-11.017,15.603c0.4,3.857,2.276,7.33,5.286,9.775
			c3.009,2.441,6.793,3.57,10.648,3.168c0.652-0.066,1.302-0.178,1.931-0.33c7.023-1.693,11.76-8.404,11.015-15.604
			c-0.396-3.856-2.275-7.327-5.282-9.772c-3.013-2.445-6.797-3.572-10.654-3.173C24.226,9.085,23.575,9.197,22.946,9.349"/>
	</defs>
	<clipPath id="SVGID_2_">
		<use xlink:href="#SVGID_1_"  overflow="visible"/>
	</clipPath>
	<g clip-path="url(#SVGID_2_)">
		<g>
			<path fill="none" stroke="#000000" d="M16.731,45.687"/>
			<path fill="none" stroke="#000000" d="M7.35,6.802"/>
			<path fill="none" stroke="#000000" d="M44.921,38.884"/>
			<path fill="none" stroke="#000000" d="M35.541,0"/>
		</g>
		<g>
			<path fill="none" stroke="#000000" d="M3.527,14.41"/>
			<path fill="none" stroke="#000000" d="M42.412,5.029"/>
			<g id="XMLID_2_">
				<g>
					<polygon points="19.86,33.095 18.689,28.234 24.53,26.835 25.7,31.694 					"/>
					<polygon points="18.689,28.234 17.28,22.405 23.12,21.005 24.53,26.835 					"/>
					<polygon points="25.7,31.694 24.53,26.835 29.389,25.654 30.56,30.515 					"/>
					<polygon points="32.41,12.584 26.58,13.995 25.05,7.645 30.879,6.245 					"/>
				</g>
				<g>
					<polyline fill="none" stroke="#000000" points="13.18,5.395 14.35,10.235 15.879,16.575 17.28,22.405 18.689,28.234 
						19.86,33.095 22.56,44.274 					"/>
					<polyline fill="none" stroke="#000000" points="19.01,3.985 20.18,8.825 21.709,15.165 23.12,21.005 24.53,26.835 25.7,31.694 
						28.4,42.875 					"/>
					<polyline fill="none" stroke="#000000" points="23.879,2.814 25.05,7.645 26.58,13.995 27.98,19.825 29.389,25.654 
						30.56,30.515 33.259,41.694 					"/>
					<polyline fill="none" stroke="#000000" points="29.709,1.405 30.879,6.245 32.41,12.584 33.81,18.425 35.219,24.255 
						36.389,29.114 39.089,40.295 					"/>
					<polyline fill="none" stroke="#000000" points="43.589,9.885 32.41,12.584 26.58,13.995 21.709,15.165 15.879,16.575 
						4.7,19.275 					"/>
					<polyline fill="none" stroke="#000000" points="39.139,4.245 30.879,6.245 25.05,7.645 20.18,8.825 14.35,10.235 0.25,13.635 
											"/>
					<polyline fill="none" stroke="#000000" points="44.99,15.725 33.81,18.425 27.98,19.825 23.12,21.005 17.28,22.405 
						6.11,25.104 					"/>
					<polyline fill="none" stroke="#000000" points="46.4,21.555 35.219,24.255 29.389,25.654 24.53,26.835 18.689,28.234 
						7.51,30.935 					"/>
					<polyline fill="none" stroke="#000000" points="47.57,26.415 36.389,29.114 30.56,30.515 25.7,31.694 19.86,33.095 
						8.689,35.795 					"/>
				</g>
			</g>
			<path fill="none" stroke="#000000" d="M10.094,41.63"/>
			<path fill="none" stroke="#000000" d="M48.978,32.249"/>
		</g>
	</g>
</g>
</svg>
