<?xml version="1.0" encoding="utf-8"?>
<!-- Generator: Adobe Illustrator 15.0.2, SVG Export Plug-In  -->
<!DOCTYPE svg PUBLIC "-//W3C//DTD SVG 1.1//EN" "http://www.w3.org/Graphics/SVG/1.1/DTD/svg11.dtd" [
	<!ENTITY ns_flows "http://ns.adobe.com/Flows/1.0/">
]>
<svg version="1.1"
	 xmlns="http://www.w3.org/2000/svg" xmlns:xlink="http://www.w3.org/1999/xlink" xmlns:a="http://ns.adobe.com/AdobeSVGViewerExtensions/3.0/"
	 x="0px" y="0px" width="40px" height="40px" viewBox="-0.5 -0.5 40 40" enable-background="new -0.5 -0.5 40 40"
	 xml:space="preserve">
<defs>
</defs>
<path d="M19.476,0c0.863,0,1.738,0.058,2.619,0.176c10.676,1.438,18.166,11.249,16.729,21.922C37.503,31.887,29.134,39,19.523,39
	c-0.862,0-1.738-0.061-2.621-0.178C6.23,37.389-1.26,27.578,0.176,16.903C1.491,7.11,9.861,0,19.476,0 M19.476,2.481
	c-8.474,0-15.713,6.343-16.842,14.751c-0.605,4.506,0.578,8.979,3.336,12.592c2.756,3.609,6.758,5.936,11.262,6.539
	c0.763,0.104,1.533,0.154,2.291,0.154c8.468,0,15.71-6.344,16.841-14.754c0.607-4.503-0.578-8.974-3.334-12.588
	c-2.76-3.614-6.762-5.938-11.268-6.545C21.007,2.533,20.235,2.481,19.476,2.481"/>
<polygon points="20.043,10.926 27.698,18 30.013,18 20.011,8.758 8.988,18 11.606,18 "/>
<polygon points="20.129,13.438 13,19.414 13,28 27,28 27,19.786 "/>
</svg>
