<?xml version="1.0" encoding="utf-8"?>
<!-- Generator: Adobe Illustrator 15.0.2, SVG Export Plug-In  -->
<!DOCTYPE svg PUBLIC "-//W3C//DTD SVG 1.1//EN" "http://www.w3.org/Graphics/SVG/1.1/DTD/svg11.dtd" [
	<!ENTITY ns_flows "http://ns.adobe.com/Flows/1.0/">
]>
<svg version="1.1"
	 xmlns="http://www.w3.org/2000/svg" xmlns:xlink="http://www.w3.org/1999/xlink" xmlns:a="http://ns.adobe.com/AdobeSVGViewerExtensions/3.0/"
	 x="0px" y="0px" width="40px" height="40px" viewBox="-0.5 -0.501 40 40" enable-background="new -0.5 -0.501 40 40"
	 xml:space="preserve">
<defs>
</defs>
<path d="M19.477,0c0.863,0,1.738,0.058,2.619,0.176c10.676,1.438,18.166,11.249,16.729,21.92
	c-1.32,9.789-9.689,16.902-19.301,16.902c-0.863,0-1.738-0.061-2.621-0.176C6.23,37.389-1.259,27.578,0.176,16.902
	C1.491,7.109,9.862,0,19.477,0 M19.477,2.48c-8.475,0-15.713,6.343-16.842,14.751c-0.606,4.507,0.578,8.979,3.335,12.593
	c2.757,3.609,6.758,5.936,11.263,6.539c0.762,0.104,1.532,0.154,2.291,0.154c8.469,0,15.711-6.344,16.842-14.754
	c0.607-4.504-0.578-8.975-3.334-12.588c-2.76-3.614-6.762-5.938-11.268-6.545C21.008,2.532,20.237,2.48,19.477,2.48"/>
<path d="M12.516,13.982c-0.724,0.004-1.309,0.588-1.309,1.311c0.003,0.723,0.587,1.309,1.311,1.31
	c5.859,0,10.63,4.767,10.633,10.632c0.002,0.723,0.586,1.308,1.306,1.308c0.364,0.003,0.69-0.146,0.928-0.381
	c0.237-0.239,0.385-0.567,0.383-0.929C25.767,19.928,19.82,13.984,12.516,13.982"/>
<path d="M11.75,19.538c-0.726-0.001-1.311,0.587-1.309,1.308c0,0.722,0.588,1.311,1.309,1.311c1.56-0.002,3.028,0.607,4.134,1.711
	c1.104,1.105,1.712,2.572,1.713,4.136c0,0.722,0.585,1.308,1.307,1.308c0.362,0,0.691-0.144,0.929-0.381
	c0.239-0.242,0.383-0.568,0.38-0.928c0-2.258-0.88-4.385-2.477-5.984C16.136,20.416,14.007,19.539,11.75,19.538"/>
<path d="M13.281,8.592c-0.719-0.004-1.306,0.583-1.309,1.307c0.006,0.724,0.59,1.309,1.312,1.309c4.075,0,7.908,1.583,10.79,4.465
	c2.884,2.883,4.471,6.718,4.471,10.795c-0.003,0.719,0.584,1.307,1.308,1.308c0.357-0.001,0.684-0.142,0.926-0.385
	c0.237-0.235,0.381-0.563,0.381-0.921c-0.003-4.777-1.857-9.266-5.236-12.646C22.548,10.451,18.053,8.589,13.281,8.592"/>
</svg>
