<?xml version="1.0" encoding="utf-8"?>
<!-- Generator: Adobe Illustrator 15.0.2, SVG Export Plug-In  -->
<!DOCTYPE svg PUBLIC "-//W3C//DTD SVG 1.1//EN" "http://www.w3.org/Graphics/SVG/1.1/DTD/svg11.dtd" [
	<!ENTITY ns_flows "http://ns.adobe.com/Flows/1.0/">
]>
<svg version="1.1"
	 xmlns="http://www.w3.org/2000/svg" xmlns:xlink="http://www.w3.org/1999/xlink" xmlns:a="http://ns.adobe.com/AdobeSVGViewerExtensions/3.0/"
	 x="0px" y="0px" width="40px" height="40px" viewBox="-0.5 -0.501 40 40" enable-background="new -0.5 -0.501 40 40"
	 xml:space="preserve">
<defs>
</defs>
<path d="M19.477,0c0.864,0,1.739,0.058,2.618,0.176c10.676,1.438,18.166,11.249,16.73,21.92c-1.32,9.789-9.691,16.902-19.301,16.902
	c-0.862,0-1.739-0.061-2.621-0.176C6.229,37.389-1.261,27.578,0.177,16.902C1.491,7.109,9.861,0,19.477,0 M19.477,2.48
	c-8.474,0-15.713,6.343-16.843,14.751c-0.605,4.507,0.578,8.979,3.336,12.593c2.757,3.609,6.758,5.936,11.263,6.539
	c0.763,0.104,1.532,0.154,2.291,0.154c8.469,0,15.709-6.344,16.842-14.754c0.605-4.504-0.578-8.975-3.336-12.588
	c-2.76-3.614-6.762-5.938-11.268-6.545C21.006,2.532,20.235,2.48,19.477,2.48"/>
<circle cx="19.648" cy="12.019" r="2.013"/>
<path d="M21.75,26.8c0,0.773-0.627,1.199-1.402,1.199h-1.401c-0.774,0-1.401-0.426-1.401-1.199l-2.104-11.307
	c0-0.773,0.628-1.494,1.402-1.494h5.607c0.773,0,1.402,0.721,1.402,1.494L21.75,26.8z"/>
<circle cx="27.911" cy="15.323" r="1.607"/>
<path d="M29.59,27.083c0,0.617-0.502,0.916-1.119,0.916h-1.119c-0.617,0-1.119-0.299-1.119-0.916l-1.68-8.958
	c0-0.618,0.502-1.126,1.119-1.126h4.477c0.619,0,1.119,0.508,1.119,1.126L29.59,27.083z"/>
<circle cx="11.09" cy="15.323" r="1.608"/>
<path d="M12.769,27.083c0,0.617-0.501,0.916-1.119,0.916H10.53c-0.617,0-1.119-0.299-1.119-0.916l-1.679-8.958
	c0-0.618,0.501-1.126,1.119-1.126h4.476c0.619,0,1.12,0.508,1.12,1.126L12.769,27.083z"/>
</svg>
