<?xml version="1.0" encoding="utf-8"?>
<!-- Generator: Adobe Illustrator 15.0.2, SVG Export Plug-In  -->
<!DOCTYPE svg PUBLIC "-//W3C//DTD SVG 1.1//EN" "http://www.w3.org/Graphics/SVG/1.1/DTD/svg11.dtd" [
	<!ENTITY ns_flows "http://ns.adobe.com/Flows/1.0/">
]>
<svg version="1.1"
	 xmlns="http://www.w3.org/2000/svg" xmlns:xlink="http://www.w3.org/1999/xlink" xmlns:a="http://ns.adobe.com/AdobeSVGViewerExtensions/3.0/"
	 x="0px" y="0px" width="40px" height="40px" viewBox="-0.5 -0.5 40 40" enable-background="new -0.5 -0.5 40 40"
	 xml:space="preserve">
<defs>
</defs>
<path d="M19.477,0c0.863,0,1.738,0.058,2.619,0.176c10.676,1.438,18.166,11.249,16.729,21.92
	c-1.32,9.789-9.689,16.902-19.301,16.902c-0.863,0-1.738-0.061-2.621-0.176C6.23,37.389-1.259,27.579,0.176,16.903
	C1.491,7.11,9.862,0,19.477,0 M19.477,2.481c-8.475,0-15.713,6.343-16.842,14.751c-0.606,4.507,0.578,8.979,3.335,12.593
	c2.757,3.609,6.758,5.936,11.263,6.539c0.762,0.104,1.532,0.154,2.291,0.154c8.469,0,15.711-6.344,16.842-14.754
	c0.607-4.504-0.578-8.975-3.334-12.588c-2.76-3.614-6.762-5.938-11.268-6.545C21.008,2.533,20.237,2.481,19.477,2.481"/>
<path d="M16.262,26.459c-0.235,0.238-0.626,0.238-0.862,0l-2.851-2.85c-0.237-0.236-0.237-0.625,0-0.863l9.111-9.107
	c0.236-0.237,0.625-0.237,0.863,0l2.844,2.849c0.24,0.239,0.24,0.628,0,0.864L16.262,26.459z M27.604,11.406
	c-1.625-1.626-3.229-0.373-3.229-0.373c-0.268,0.205-0.674,0.566-0.908,0.797c-0.234,0.233-0.229,0.62,0.008,0.858l2.848,2.848
	c0.238,0.239,0.623,0.243,0.857,0.008c0.234-0.234,0.594-0.643,0.801-0.908C27.981,14.635,29.233,13.035,27.604,11.406
	 M12.893,27.973c0.327-0.08,0.398-0.342,0.161-0.578l-1.464-1.459c-0.236-0.234-0.498-0.162-0.578,0.162l-0.475,1.906
	c-0.08,0.328,0.119,0.527,0.446,0.447L12.893,27.973z"/>
</svg>
