<?xml version="1.0" encoding="utf-8"?>
<!-- Generator: Adobe Illustrator 15.0.0, SVG Export Plug-In  -->
<!DOCTYPE svg PUBLIC "-//W3C//DTD SVG 1.1//EN" "http://www.w3.org/Graphics/SVG/1.1/DTD/svg11.dtd" [
	<!ENTITY ns_flows "http://ns.adobe.com/Flows/1.0/">
]>
<svg version="1.1"
	 xmlns="http://www.w3.org/2000/svg" xmlns:xlink="http://www.w3.org/1999/xlink" xmlns:a="http://ns.adobe.com/AdobeSVGViewerExtensions/3.0/"
	 x="0px" y="0px" width="12px" height="10px" viewBox="-0.173 -0.236 12 10" enable-background="new -0.173 -0.236 12 10"
	 xml:space="preserve">
<defs>
</defs>
<path fill="#EC008C" d="M6.809,3.521L4.113,5.525l1.881,1.887L4.939,5.625l2.865-1.957l-1.342-2.93
	C6.58,0.648,6.715,0.56,6.867,0.472s0.32-0.167,0.504-0.237s0.383-0.127,0.598-0.17S8.414,0,8.66,0c0.465,0,0.883,0.081,1.254,0.243
	s0.686,0.385,0.943,0.668s0.455,0.615,0.592,0.996s0.205,0.788,0.205,1.222c0,0.41-0.083,0.815-0.249,1.216s-0.385,0.79-0.656,1.169
	s-0.582,0.742-0.932,1.09S9.111,7.275,8.748,7.576S8.029,8.149,7.682,8.394S7.022,8.847,6.747,9.021S6.25,9.329,6.082,9.425
	S5.828,9.568,5.824,9.568s-0.061-0.03-0.17-0.091S5.396,9.329,5.209,9.214S4.804,8.959,4.556,8.795S4.044,8.447,3.765,8.244
	S3.198,7.818,2.903,7.576S2.321,7.078,2.042,6.809S1.5,6.257,1.254,5.962s-0.463-0.598-0.65-0.908S0.269,4.427,0.161,4.104
	S0,3.457,0,3.129c0-0.434,0.068-0.841,0.205-1.222s0.334-0.713,0.592-0.996S1.369,0.405,1.74,0.243S2.529,0,2.994,0
	C3.24,0,3.47,0.021,3.683,0.064s0.41,0.1,0.592,0.17s0.349,0.149,0.501,0.237S5.063,0.648,5.18,0.738L6.809,3.521z"/>
</svg>
