<?xml version="1.0" encoding="utf-8"?>
<!-- Generator: Adobe Illustrator 15.0.0, SVG Export Plug-In  -->
<!DOCTYPE svg PUBLIC "-//W3C//DTD SVG 1.1//EN" "http://www.w3.org/Graphics/SVG/1.1/DTD/svg11.dtd" [
	<!ENTITY ns_flows "http://ns.adobe.com/Flows/1.0/">
]>
<svg version="1.1"
	 xmlns="http://www.w3.org/2000/svg" xmlns:xlink="http://www.w3.org/1999/xlink" xmlns:a="http://ns.adobe.com/AdobeSVGViewerExtensions/3.0/"
	 x="0px" y="0px" width="12px" height="10px" viewBox="-0.173 -0.236 12 10" enable-background="new -0.173 -0.236 12 10"
	 xml:space="preserve">
<defs>
</defs>
<path fill="#969696" d="M5.824,1.365c0.203-0.254,0.443-0.48,0.721-0.68c0.117-0.086,0.25-0.17,0.397-0.252
	c0.148-0.082,0.311-0.155,0.486-0.22s0.367-0.116,0.572-0.155S8.425,0,8.659,0c0.465,0,0.883,0.081,1.254,0.243
	s0.686,0.385,0.944,0.668c0.258,0.283,0.454,0.615,0.592,0.996c0.136,0.381,0.205,0.788,0.205,1.222c0,0.41-0.084,0.815-0.25,1.216
	s-0.385,0.79-0.655,1.169c-0.271,0.379-0.582,0.742-0.932,1.09S9.11,7.275,8.747,7.576S8.028,8.149,7.681,8.394
	S7.022,8.846,6.747,9.02S6.25,9.328,6.082,9.424S5.828,9.568,5.824,9.568s-0.061-0.031-0.17-0.092S5.396,9.328,5.209,9.213
	S4.804,8.959,4.556,8.795S4.044,8.447,3.765,8.244S3.198,7.818,2.903,7.576S2.321,7.078,2.042,6.809S1.5,6.257,1.254,5.962
	s-0.463-0.598-0.65-0.908S0.269,4.427,0.161,4.104S0,3.457,0,3.129c0-0.434,0.068-0.841,0.205-1.222s0.334-0.713,0.592-0.996
	S1.369,0.405,1.74,0.243S2.529,0,2.994,0c0.234,0,0.454,0.02,0.659,0.059s0.396,0.091,0.571,0.155s0.338,0.138,0.486,0.22
	S4.992,0.6,5.109,0.686C5.387,0.885,5.625,1.111,5.824,1.365z M5.824,8.52c0.91-0.555,1.724-1.135,2.442-1.74
	C8.571,6.521,8.87,6.246,9.163,5.953s0.555-0.597,0.783-0.911s0.412-0.634,0.553-0.958s0.211-0.646,0.211-0.967
	c0-0.34-0.049-0.65-0.148-0.932s-0.238-0.521-0.416-0.721S9.757,1.111,9.513,1.002S8.999,0.838,8.706,0.838
	c-0.273,0-0.531,0.039-0.775,0.117S7.462,1.131,7.257,1.248s-0.392,0.247-0.56,0.39S6.385,1.916,6.264,2.045s-0.22,0.242-0.296,0.34
	s-0.124,0.16-0.144,0.188C5.594,2.248,5.33,1.959,5.033,1.705C4.908,1.596,4.77,1.489,4.617,1.386S4.301,1.189,4.125,1.107
	S3.763,0.96,3.565,0.911S3.162,0.838,2.947,0.838c-0.293,0-0.562,0.055-0.806,0.164S1.687,1.266,1.509,1.465
	S1.192,1.904,1.093,2.186S0.943,2.777,0.943,3.117c0,0.32,0.069,0.643,0.208,0.967s0.322,0.644,0.551,0.958S2.191,5.66,2.484,5.953
	s0.592,0.568,0.896,0.826C4.096,7.385,4.91,7.965,5.824,8.52z"/>
<path display="none" fill="#EC008C" d="M6.809,3.521L4.113,5.525l1.881,1.887L4.939,5.625l2.865-1.957l-1.342-2.93
	C6.58,0.648,6.715,0.56,6.867,0.472s0.32-0.167,0.504-0.237s0.383-0.127,0.598-0.17S8.414,0,8.66,0c0.465,0,0.883,0.081,1.254,0.243
	s0.686,0.385,0.943,0.668s0.455,0.615,0.592,0.996s0.205,0.788,0.205,1.222c0,0.41-0.083,0.815-0.249,1.216s-0.385,0.79-0.656,1.169
	s-0.582,0.742-0.932,1.09S9.111,7.275,8.748,7.576S8.029,8.149,7.682,8.394S7.022,8.847,6.747,9.021S6.25,9.329,6.082,9.425
	S5.828,9.568,5.824,9.568s-0.061-0.03-0.17-0.091S5.396,9.329,5.209,9.214S4.804,8.959,4.556,8.795S4.044,8.447,3.765,8.244
	S3.198,7.818,2.903,7.576S2.321,7.078,2.042,6.809S1.5,6.257,1.254,5.962s-0.463-0.598-0.65-0.908S0.269,4.427,0.161,4.104
	S0,3.457,0,3.129c0-0.434,0.068-0.841,0.205-1.222s0.334-0.713,0.592-0.996S1.369,0.405,1.74,0.243S2.529,0,2.994,0
	C3.24,0,3.47,0.021,3.683,0.064s0.41,0.1,0.592,0.17s0.349,0.149,0.501,0.237S5.063,0.648,5.18,0.738L6.809,3.521z"/>
<path display="none" fill="#EC008C" d="M5.824,1.365c0.203-0.254,0.443-0.48,0.721-0.68c0.117-0.086,0.25-0.17,0.398-0.252
	s0.311-0.155,0.486-0.22s0.366-0.116,0.571-0.155S8.426,0,8.66,0c0.465,0,0.883,0.081,1.254,0.243s0.686,0.385,0.943,0.668
	s0.455,0.615,0.592,0.996s0.205,0.788,0.205,1.222c0,0.41-0.083,0.815-0.249,1.216s-0.385,0.79-0.656,1.169s-0.582,0.742-0.932,1.09
	S9.111,7.275,8.748,7.576S8.029,8.149,7.682,8.394S7.022,8.847,6.747,9.021S6.25,9.329,6.082,9.425S5.828,9.568,5.824,9.568
	s-0.061-0.03-0.17-0.091S5.396,9.329,5.209,9.214S4.804,8.959,4.556,8.795S4.044,8.447,3.765,8.244S3.198,7.818,2.903,7.576
	S2.321,7.078,2.042,6.809S1.5,6.257,1.254,5.962s-0.463-0.598-0.65-0.908S0.269,4.427,0.161,4.104S0,3.457,0,3.129
	c0-0.434,0.068-0.841,0.205-1.222s0.334-0.713,0.592-0.996S1.369,0.405,1.74,0.243S2.529,0,2.994,0c0.234,0,0.454,0.02,0.659,0.059
	s0.396,0.091,0.571,0.155s0.338,0.138,0.486,0.22S4.992,0.6,5.109,0.686C5.387,0.885,5.625,1.111,5.824,1.365z"/>
</svg>
